<svg width="24" height="24" viewBox="0 0 24 24" fill="none" xmlns="http://www.w3.org/2000/svg">
<path d="M14.7668 8.36113V6.54171C14.7668 6.05917 14.5751 5.59639 14.2339 5.25519C13.8927 4.91398 13.43 4.72229 12.9474 4.72229H4.2142C3.73166 4.72229 3.26888 4.91398 2.92767 5.25519C2.58646 5.59639 2.39478 6.05917 2.39478 6.54171V17.4582C2.39478 17.9408 2.58646 18.4035 2.92767 18.7448C3.26888 19.086 3.73166 19.2776 4.2142 19.2776H12.9474C13.43 19.2776 13.8927 19.086 14.2339 18.7448C14.5751 18.4035 14.7668 17.9408 14.7668 17.4582V15.6388M17.6779 8.36113L21.3167 12M21.3167 12L17.6779 15.6388M21.3167 12H8.8992" stroke="white" stroke-width="1.45554" stroke-linecap="round" stroke-linejoin="round"/>
</svg>
