<svg width="78" height="65" viewBox="0 0 78 65" fill="none" xmlns="http://www.w3.org/2000/svg">
<path d="M37.2775 51.186L41.8739 25.5308L30.3836 25.5929L26.1135 51.1267L14.3173 51.1931L18.9137 25.5322C15.7118 25.5319 12.6086 26.7654 10.1323 29.023C7.65604 31.2805 5.95955 34.4225 5.33155 37.9144C3.0467 50.627 0.519409 64.1414 0.519409 64.1414L40.6959 63.9466C43.7448 63.9321 46.6644 62.5748 48.8157 60.1719C50.967 57.7691 52.1747 54.5162 52.1747 51.1253L37.2775 51.186Z" fill="#1F6777"/>
<path d="M63.6548 0.0600586H17.7383C13.1715 0.0600586 8.79186 2.07765 5.5627 5.66898C2.33353 9.26031 0.519409 14.1312 0.519409 19.2101L0.519409 31.9763C0.519409 26.8974 2.33353 22.0265 5.5627 18.4352C8.79186 14.8439 13.1715 12.8263 17.7383 12.8263H61.3687C62.0835 12.7949 62.795 12.9507 63.4458 13.281C64.0966 13.6113 64.6686 14.1069 65.1157 14.7279C65.5629 15.3489 65.8727 16.0781 66.0202 16.8566C66.1677 17.6351 66.1488 18.4412 65.965 19.2101C65.6102 20.9688 64.7431 22.5479 63.4982 23.7021C62.2534 24.8563 60.7007 25.5208 59.0813 25.5925H53.3413L51.0564 38.3602H56.7965C66.3052 38.3602 75.5512 29.7853 77.4451 19.2101C79.339 8.63488 73.1636 0.0600586 63.6548 0.0600586Z" fill="#1B4851"/>
</svg>
