<svg width="51" height="51" viewBox="0 0 51 51" fill="none" xmlns="http://www.w3.org/2000/svg">
<g clip-path="url(#clip0_11_45958)">
<path d="M42.5266 12.4454C43.4198 9.97464 41.0255 7.5804 38.5548 8.47566L8.35801 19.3965C5.879 20.2939 5.5792 23.6764 7.85972 24.9976L17.4987 30.5779L26.106 21.9707C26.4959 21.594 27.0182 21.3856 27.5603 21.3903C28.1024 21.3951 28.621 21.6125 29.0043 21.9958C29.3877 22.3792 29.6051 22.8978 29.6098 23.4399C29.6146 23.982 29.4062 24.5043 29.0295 24.8942L20.4223 33.5015L26.0047 43.1405C27.3238 45.421 30.7063 45.1191 31.6037 42.6422L42.5266 12.4454Z" fill="#1F515C"/>
</g>
<defs>
<clipPath id="clip0_11_45958">
<rect width="49.6216" height="49.6216" fill="white" transform="translate(0.689209 0.689209)"/>
</clipPath>
</defs>
</svg>
