<svg width="230" height="263" viewBox="0 0 230 263" fill="none" xmlns="http://www.w3.org/2000/svg">
<path d="M130.855 171.107L133.976 167.505H127.542L130.855 171.107Z" fill="white"/>
<path fill-rule="evenodd" clip-rule="evenodd" d="M188.571 11.6909V105.516L167.54 129.38V123.33H32.4211V139.943H158.225L148.333 151.179V150.891H32.4211V167.505H100.077L123.557 193.05C125.429 195.163 128.166 196.363 130.999 196.363C133.976 196.315 136.665 195.067 138.586 192.906L188.571 136.102V211.728H152.943C151.454 211.728 150.014 212.305 148.958 213.361C147.901 214.417 147.325 215.858 147.325 217.298V251.486H11.8699V11.6909H188.571ZM167.54 95.7681H32.4211V112.382H167.54V95.7681ZM167.54 68.2066H52.1079V84.8203H167.54V68.2066Z" fill="white"/>
<path fill-rule="evenodd" clip-rule="evenodd" d="M188.571 136.102L199.759 123.378V222.916C199.759 224.405 199.183 225.845 198.127 226.854L181.177 243.9L181.129 243.948L163.843 261.09C162.834 262.098 161.394 262.722 159.905 262.722H6.25198C4.76346 262.722 3.32296 262.098 2.2666 261.042C1.25825 260.033 0.634033 258.593 0.634033 257.104V6.07304C0.634033 4.58452 1.25825 3.14401 2.2666 2.13566C3.32296 1.07929 4.76346 0.455078 6.25198 0.455078H194.141C195.63 0.455078 197.07 1.07929 198.127 2.13566C199.135 3.14401 199.759 4.58452 199.759 6.07304V92.7912L188.571 105.516V11.691H11.8699V251.486H147.325V217.298C147.325 215.858 147.901 214.417 148.958 213.361C150.014 212.305 151.454 211.729 152.943 211.729H188.571V136.102ZM188.331 222.868H158.513V251.678L188.331 222.868Z" fill="#1C4D58"/>
<path d="M158.513 251.727L188.331 222.917H158.513V251.727Z" fill="white"/>
<path d="M52.1079 84.8203H167.54V68.2065H52.1079V84.8203Z" fill="#37B9BE"/>
<path d="M32.4211 112.382H167.54V95.7681H32.4211V112.382Z" fill="#37B9BE"/>
<path d="M32.4211 123.33V139.943H158.225L167.54 129.38V123.33H32.4211Z" fill="#37B9BE"/>
<path d="M32.4211 150.891V167.505H100.077L96.0432 163.135L91.0975 157.709C90.2812 156.797 90.1371 155.453 90.7613 154.396C91.2895 153.532 92.2018 153.052 93.1622 153.052L93.8344 153.1L119.523 159.438C120.052 159.582 120.532 159.87 120.916 160.254L127.542 167.505H133.976L148.333 151.179V150.891H32.4211Z" fill="#37B9BE"/>
<path d="M228.62 86.3931L217.624 76.7417C217.096 76.2616 216.472 76.0215 215.752 76.0215H215.608C214.839 76.0695 214.167 76.4056 213.687 76.9818L199.762 92.8273L188.574 105.552L167.543 129.416L158.228 139.98L148.336 151.216L133.979 167.541L130.858 171.143L127.545 167.541L120.919 160.291C120.535 159.907 120.054 159.619 119.526 159.474L93.8374 153.136L93.1651 153.088C92.2048 153.088 91.2925 153.568 90.7643 154.433C90.1401 155.489 90.2841 156.834 91.1004 157.746L96.0461 163.172L100.08 167.541L123.56 193.086C125.432 195.199 128.169 196.399 131.002 196.399C133.979 196.351 136.668 195.103 138.589 192.942L188.574 136.138L199.762 123.414L228.86 90.3304C229.869 89.178 229.773 87.4014 228.62 86.3931Z" fill="#AAD4C8"/>
<path d="M228.62 86.3931L217.624 76.7417C217.096 76.2616 216.472 76.0215 215.752 76.0215H215.608C214.839 76.0695 214.167 76.4056 213.687 76.9818L199.762 92.8273L188.574 105.552L167.543 129.416L158.228 139.98L148.336 151.216L133.979 167.541L130.858 171.143L127.545 167.541L120.919 160.291C120.535 159.907 120.054 159.619 119.526 159.474L93.8374 153.136L93.1651 153.088C92.2048 153.088 91.2925 153.568 90.7643 154.433C90.1401 155.489 90.2841 156.834 91.1004 157.746L96.0461 163.172L100.08 167.541L123.56 193.086C125.432 195.199 128.169 196.399 131.002 196.399C133.979 196.351 136.668 195.103 138.589 192.942L188.574 136.138L199.762 123.414L228.86 90.3304C229.869 89.178 229.773 87.4014 228.62 86.3931Z" fill="url(#paint0_radial_6_45676)"/>
<defs>
<radialGradient id="paint0_radial_6_45676" cx="0" cy="0" r="1" gradientUnits="userSpaceOnUse" gradientTransform="translate(155.013 99.9798) rotate(87.0589) scale(96.5466 111.551)">
<stop stop-color="#1C4953"/>
<stop offset="1" stop-color="#235D6A"/>
</radialGradient>
</defs>
</svg>
