<svg width="393" height="365" viewBox="0 0 393 365" fill="none" xmlns="http://www.w3.org/2000/svg">
<path d="M198.582 20.0039C277.254 -24.0384 340.296 12.9734 339.367 102.685C338.495 192.454 273.942 300.875 195.271 344.976C116.657 389.018 53.5566 352.064 54.4862 262.295C55.4159 172.583 119.911 64.0462 198.582 20.0039Z" stroke="url(#paint0_linear_118_268)" stroke-width="1.16207"/>
<path d="M195.271 20.0039C116.657 -24.0384 53.5566 12.9734 54.4862 102.685C55.4159 192.454 119.911 300.875 198.582 344.976C277.254 389.018 340.296 352.064 339.367 262.295C338.495 172.583 273.942 64.0462 195.271 20.0039Z" stroke="url(#paint1_linear_118_268)" stroke-width="1.16207"/>
<path d="M80.8651 68.7525C-5.88316 93.214 -24.3019 163.984 39.7861 226.793C103.932 289.603 226.181 320.688 312.988 296.227C399.736 271.765 418.213 201.054 354.067 138.186C290.037 75.3763 167.671 44.2911 80.8651 68.7525Z" stroke="url(#paint2_linear_118_268)" stroke-width="1.16207"/>
<path d="M145.069 153.409C145.069 88.6239 167.613 36.1566 195.386 36.1566C223.218 36.1566 245.762 88.6239 245.762 153.409C245.762 218.136 223.218 270.603 195.386 270.603C167.613 270.603 145.069 218.136 145.069 153.409Z" fill="#8FFFEC"/>
<path d="M179.234 316.679H192.307C193.934 316.679 195.329 317.783 195.329 319.12V333.413C195.329 336.609 190.622 338.294 187.601 336.202C183.301 333.064 178.363 327.835 176.271 319.584C175.864 318.074 177.317 316.679 179.234 316.679Z" fill="url(#paint3_radial_118_268)"/>
<path d="M194.922 310.172V298.609C194.922 293.787 189.983 290.3 184.58 291.288L177.259 292.625C171.855 293.67 168.601 298.667 170.403 303.199L174.76 313.89C178.653 323.419 194.922 320.398 194.922 310.172Z" fill="url(#paint4_radial_118_268)"/>
<path d="M194.051 285.826V269.325C194.051 262.411 187.02 257.414 179.292 258.867L168.834 260.784C161.106 262.237 156.458 269.441 159.072 275.833L165.231 291.172C170.809 304.768 194.051 300.468 194.051 285.826Z" fill="url(#paint5_radial_118_268)"/>
<path d="M164.302 288.79L165.231 291.172C170.809 304.768 194.051 300.469 194.051 285.826V284.141C186.497 291.985 174.993 293.496 164.302 288.79Z" fill="url(#paint6_radial_118_268)"/>
<path d="M167.032 300.12C166.393 296.808 167.904 293.729 170.402 293.322C172.901 292.857 175.399 295.181 176.038 298.551C176.677 301.863 175.167 304.943 172.668 305.349C170.17 305.814 167.671 303.49 167.032 300.12Z" fill="url(#paint7_radial_118_268)"/>
<path d="M213.05 316.679H199.977C198.292 316.679 196.956 317.783 196.956 319.12V333.413C196.956 336.609 201.662 338.294 204.625 336.202C208.983 333.064 213.922 327.835 216.013 319.584C216.42 318.074 214.968 316.679 213.05 316.679Z" fill="url(#paint8_radial_118_268)"/>
<path d="M197.362 310.172V298.609C197.304 293.787 202.243 290.3 207.705 291.288L214.968 292.625C220.371 293.67 223.683 298.667 221.824 303.199L217.466 313.89C213.631 323.419 197.362 320.398 197.362 310.172Z" fill="url(#paint9_radial_118_268)"/>
<path d="M198.234 285.826V269.325C198.234 262.411 205.264 257.414 212.992 258.867L223.393 260.784C231.12 262.237 235.827 269.441 233.212 275.833L226.995 291.172C221.475 304.768 198.234 300.468 198.234 285.826Z" fill="url(#paint10_radial_118_268)"/>
<path d="M227.983 288.79L226.995 291.172C221.475 304.768 198.234 300.469 198.234 285.826V284.141C205.787 291.985 217.234 293.496 227.983 288.79Z" fill="url(#paint11_radial_118_268)"/>
<path d="M225.194 300.12C225.833 296.808 224.322 293.729 221.824 293.322C219.383 292.857 216.827 295.181 216.188 298.551C215.607 301.863 217.117 304.943 219.616 305.349C222.056 305.814 224.613 303.49 225.194 300.12Z" fill="url(#paint12_radial_118_268)"/>
<path d="M69.3025 164.274L85.9782 159.452C93.0087 157.418 100.155 162.183 100.911 169.446L102.015 179.207C102.828 186.47 96.9016 192.687 89.6387 192.28L72.3239 191.234C56.8684 190.363 54.4281 168.574 69.3025 164.274Z" fill="url(#paint13_radial_118_268)"/>
<path d="M105.443 154.281L129.266 147.424C139.317 144.519 149.485 151.375 150.648 161.718L152.216 175.663C153.32 186.005 144.895 194.895 134.495 194.314L109.743 192.861C87.6635 191.525 84.1773 160.44 105.443 154.281Z" fill="url(#paint14_radial_118_268)"/>
<path d="M105.443 154.281L129.266 147.424C139.317 144.519 149.485 151.375 150.648 161.718L152.216 175.663C153.32 186.005 144.895 194.895 134.495 194.314L109.743 192.861C87.6635 191.525 84.1773 160.44 105.443 154.281Z" fill="url(#paint15_radial_118_268)"/>
<path d="M322.749 164.274L306.074 159.452C299.043 157.418 291.955 162.183 291.141 169.446L290.037 179.207C289.224 186.47 295.15 192.687 302.413 192.28L319.728 191.234C335.184 190.363 337.624 168.574 322.749 164.274Z" fill="url(#paint16_radial_118_268)"/>
<path d="M286.609 154.281L262.787 147.424C252.793 144.519 242.567 151.375 241.405 161.718L239.894 175.663C238.732 186.005 247.157 194.895 257.557 194.314L282.309 192.861C304.389 191.525 307.875 160.44 286.609 154.281Z" fill="url(#paint17_radial_118_268)"/>
<path d="M146.58 235.974L135.947 173.978C131.473 147.889 151.577 124.125 177.956 124.125H213.573C240.01 124.125 260.056 147.889 255.582 173.978L244.949 235.974C235.478 291.288 156.051 291.288 146.58 235.974Z" fill="url(#paint18_radial_118_268)"/>
<path style="mix-blend-mode:multiply" d="M213.573 124.125H196.258V207.968C211.656 208.2 224.032 220.751 224.032 236.206C224.032 251.662 211.656 262.643 196.258 262.818V277.46C218.338 277.227 240.242 263.399 244.949 235.974L255.582 173.978C260.056 147.889 240.01 124.125 213.573 124.125Z" fill="url(#paint19_linear_118_268)"/>
<path d="M172.262 237.31C172.262 224.237 182.836 213.604 195.91 213.604C208.983 213.604 219.558 224.237 219.558 237.31C219.558 250.442 208.983 261.074 195.91 261.074C182.836 261.074 172.262 250.442 172.262 237.31Z" fill="#6661AB"/>
<path d="M180.396 237.891C180.396 229.292 187.31 222.32 195.91 222.32C204.509 222.32 211.481 229.292 211.481 237.891C211.481 246.491 204.509 253.521 195.91 253.521C187.31 253.521 180.396 246.491 180.396 237.891Z" fill="#8FFFEC"/>
<path fill-rule="evenodd" clip-rule="evenodd" d="M228.447 236.206C228.447 254.218 213.863 268.918 195.909 268.918C177.956 268.918 163.372 254.218 163.372 236.206C163.372 218.194 177.956 203.552 195.909 203.552C213.863 203.552 228.447 218.194 228.447 236.206ZM167.787 236.206C167.787 251.836 180.396 264.445 195.909 264.445C211.423 264.445 224.031 251.836 224.031 236.206C224.031 220.635 211.423 207.968 195.909 207.968C180.396 207.968 167.787 220.635 167.787 236.206Z" fill="url(#paint20_radial_118_268)"/>
<path d="M109.685 192.803C109.685 192.842 109.704 192.861 109.743 192.861L127.116 193.849C111.893 185.075 107.767 161.834 122.7 149.284L108.232 153.467C97.0181 164.797 99.0517 182.926 109.685 192.803Z" fill="url(#paint21_radial_118_268)"/>
<path d="M281.031 192.803C280.992 192.842 280.953 192.861 280.914 192.861L263.6 193.849C278.765 185.075 282.89 161.834 267.957 149.284L282.425 153.467C293.639 164.797 291.605 182.926 281.031 192.803Z" fill="url(#paint22_radial_118_268)"/>
<path d="M89.5803 153.641C95.8555 152.479 101.666 155.21 102.595 159.742C103.467 164.332 99.1093 169.039 92.8341 170.259C86.5589 171.479 80.7486 168.748 79.8189 164.158C78.9474 159.568 83.3051 154.862 89.5803 153.641Z" fill="url(#paint23_radial_118_268)"/>
<path d="M302.471 153.641C296.196 152.479 290.386 155.21 289.514 159.742C288.585 164.332 293.001 169.039 299.276 170.259C305.551 171.479 311.361 168.748 312.233 164.158C313.104 159.568 308.747 154.862 302.471 153.641Z" fill="url(#paint24_radial_118_268)"/>
<path d="M270.805 94.4923C270.805 132.84 237.454 163.868 196.258 163.868C155.063 163.868 121.712 132.84 121.712 94.4923C121.712 56.2022 155.063 25.1169 196.258 25.1169C237.454 25.1169 270.805 56.2022 270.805 94.4923Z" fill="url(#paint25_radial_118_268)"/>
<path style="mix-blend-mode:multiply" d="M229.784 47.4867C229.784 59.8046 215.084 69.7984 196.955 69.7984C178.827 69.7984 164.127 59.8046 164.127 47.4867C164.127 35.1107 178.827 25.1169 196.955 25.1169C215.084 25.1169 229.784 35.1107 229.784 47.4867Z" fill="url(#paint26_radial_118_268)"/>
<path d="M270.805 106.229C256.453 167.47 136.122 167.47 121.77 106.229Z" fill="url(#paint27_radial_118_268)"/>
<path d="M270.398 87.0551C253.955 105.241 226.879 117.153 196.258 117.153C165.638 117.153 138.62 105.241 122.177 87.0551C121.944 88.9918 121.809 90.948 121.77 92.9235C121.828 96.3516 122.002 100.942 122.293 103.033C138.736 121.104 165.754 132.899 196.258 132.899C226.763 132.899 253.781 121.104 270.224 103.033C270.514 100.942 270.689 96.3516 270.747 92.9235C270.708 90.948 270.592 88.9918 270.398 87.0551Z" fill="url(#paint28_radial_118_268)"/>
<path d="M270.398 87.0551C253.955 105.241 226.879 117.153 196.258 117.153C165.638 117.153 138.62 105.241 122.177 87.0551C121.944 88.9918 121.809 90.948 121.77 92.9235C121.828 96.3516 122.002 100.942 122.293 103.033C138.736 121.104 165.754 132.899 196.258 132.899C226.763 132.899 253.781 121.104 270.224 103.033C270.514 100.942 270.689 96.3516 270.747 92.9235C270.708 90.948 270.592 88.9918 270.398 87.0551Z" fill="url(#paint29_radial_118_268)"/>
<path d="M156.109 119.651C156.109 117.211 158.143 115.177 160.583 115.177C163.081 115.177 165.057 117.211 165.057 119.651C165.057 122.15 163.081 124.125 160.583 124.125C158.143 124.125 156.109 122.15 156.109 119.651Z" fill="#8FFFEC"/>
<path d="M228.854 119.651C228.854 117.211 230.829 115.177 233.328 115.177C235.768 115.177 237.802 117.211 237.802 119.651C237.802 122.15 235.768 124.125 233.328 124.125C230.829 124.125 228.854 122.15 228.854 119.651Z" fill="#8FFFEC"/>
<path d="M191.319 117.036C194.496 117.153 197.652 117.153 200.79 117.036C227.518 116.049 251.224 105.881 266.97 90.5413C268.016 89.4954 269.701 87.7523 270.398 87.0551C269.759 81.7677 268.422 76.4222 266.737 71.832H125.779C124.094 76.4222 122.757 81.5353 122.176 87.0551C123.396 88.5077 124.617 89.6116 125.779 90.7737C141.467 105.939 164.882 115.932 191.319 117.036Z" fill="url(#paint30_radial_118_268)"/>
<path d="M270.805 94.4923C270.805 132.84 237.454 163.868 196.258 163.868C155.063 163.868 121.712 132.84 121.712 94.4923" fill="url(#paint31_linear_118_268)"/>
<defs>
<linearGradient id="paint0_linear_118_268" x1="54.4862" y1="1.4108" x2="339.367" y2="1.4108" gradientUnits="userSpaceOnUse">
<stop offset="0.215" stop-color="#E4FFFB" stop-opacity="0.19"/>
<stop offset="1" stop-color="#8FFFEC"/>
</linearGradient>
<linearGradient id="paint1_linear_118_268" x1="54.4862" y1="1.4108" x2="339.367" y2="1.4108" gradientUnits="userSpaceOnUse">
<stop offset="0.215" stop-color="#E4FFFB" stop-opacity="0.19"/>
<stop offset="1" stop-color="#8FFFEC"/>
</linearGradient>
<linearGradient id="paint2_linear_118_268" x1="1.61219" y1="60.3857" x2="392.299" y2="60.3857" gradientUnits="userSpaceOnUse">
<stop stop-color="#8FFFEC"/>
<stop offset="0.785" stop-color="#E4FFFB" stop-opacity="0.19"/>
</linearGradient>
<radialGradient id="paint3_radial_118_268" cx="0" cy="0" r="1" gradientUnits="userSpaceOnUse" gradientTransform="translate(186.729 319.178) scale(13.9448 13.9448)">
<stop offset="0.094" stop-color="#69B5B5"/>
<stop offset="0.346" stop-color="#D9E7E7"/>
<stop offset="0.655" stop-color="#B3D4D4"/>
<stop offset="1" stop-color="#C4D9D9"/>
</radialGradient>
<radialGradient id="paint4_radial_118_268" cx="0" cy="0" r="1" gradientUnits="userSpaceOnUse" gradientTransform="translate(180.977 294.658) scale(16.2108)">
<stop offset="0.391" stop-color="#69B5B5"/>
<stop offset="0.624" stop-color="#B3D4D4"/>
<stop offset="0.751" stop-color="#DBF2F2"/>
<stop offset="0.938" stop-color="#D9E7E7"/>
</radialGradient>
<radialGradient id="paint5_radial_118_268" cx="0" cy="0" r="1" gradientUnits="userSpaceOnUse" gradientTransform="translate(177.607 263.689) scale(23.1832 23.1832)">
<stop offset="0.454" stop-color="#69B5B5"/>
<stop offset="0.612" stop-color="#B3D4D4"/>
<stop offset="0.723" stop-color="#B4C7C7"/>
<stop offset="0.938" stop-color="#D9E7E7"/>
</radialGradient>
<radialGradient id="paint6_radial_118_268" cx="0" cy="0" r="1" gradientUnits="userSpaceOnUse" gradientTransform="translate(188.415 290.242) scale(32.3054 32.3055)">
<stop offset="0.001" stop-color="#FF8742"/>
<stop offset="0.384" stop-color="#C98600"/>
<stop offset="0.891" stop-color="#8A5B00"/>
</radialGradient>
<radialGradient id="paint7_radial_118_268" cx="0" cy="0" r="1" gradientUnits="userSpaceOnUse" gradientTransform="translate(172.32 296.285) scale(8.01825 8.01826)">
<stop stop-color="#6661AC"/>
<stop offset="0.512" stop-color="#322E69"/>
<stop offset="1" stop-color="#383475"/>
</radialGradient>
<radialGradient id="paint8_radial_118_268" cx="0" cy="0" r="1" gradientUnits="userSpaceOnUse" gradientTransform="translate(205.497 319.178) scale(13.9448 13.9448)">
<stop offset="0.094" stop-color="#69B5B5"/>
<stop offset="0.346" stop-color="#D9E7E7"/>
<stop offset="0.655" stop-color="#B3D4D4"/>
<stop offset="1" stop-color="#C4D9D9"/>
</radialGradient>
<radialGradient id="paint9_radial_118_268" cx="0" cy="0" r="1" gradientUnits="userSpaceOnUse" gradientTransform="translate(211.249 294.658) scale(16.2108 16.2108)">
<stop offset="0.391" stop-color="#69B5B5"/>
<stop offset="0.624" stop-color="#B3D4D4"/>
<stop offset="0.751" stop-color="#DBF2F2"/>
<stop offset="0.938" stop-color="#D9E7E7"/>
</radialGradient>
<radialGradient id="paint10_radial_118_268" cx="0" cy="0" r="1" gradientUnits="userSpaceOnUse" gradientTransform="translate(214.619 263.689) scale(23.1832 23.1832)">
<stop offset="0.454" stop-color="#69B5B5"/>
<stop offset="0.612" stop-color="#B3D4D4"/>
<stop offset="0.723" stop-color="#B4C7C7"/>
<stop offset="0.938" stop-color="#D9E7E7"/>
</radialGradient>
<radialGradient id="paint11_radial_118_268" cx="0" cy="0" r="1" gradientUnits="userSpaceOnUse" gradientTransform="translate(203.812 290.242) scale(32.3055 32.3055)">
<stop offset="0.001" stop-color="#FF8742"/>
<stop offset="0.384" stop-color="#C98600"/>
<stop offset="0.891" stop-color="#8A5B00"/>
</radialGradient>
<radialGradient id="paint12_radial_118_268" cx="0" cy="0" r="1" gradientUnits="userSpaceOnUse" gradientTransform="translate(219.964 296.285) scale(8.01825 8.01826)">
<stop stop-color="#6661AC"/>
<stop offset="0.512" stop-color="#322E69"/>
<stop offset="1" stop-color="#383475"/>
</radialGradient>
<radialGradient id="paint13_radial_118_268" cx="0" cy="0" r="1" gradientUnits="userSpaceOnUse" gradientTransform="translate(99.2838 174.849) scale(21.4982 21.4982)">
<stop offset="0.578" stop-color="#69B5B5"/>
<stop offset="0.612" stop-color="#B3D4D4"/>
<stop offset="0.751" stop-color="#C4D9D9"/>
<stop offset="0.938" stop-color="#D9E7E7"/>
</radialGradient>
<radialGradient id="paint14_radial_118_268" cx="0" cy="0" r="1" gradientUnits="userSpaceOnUse" gradientTransform="translate(148.207 169.446) scale(30.6785)">
<stop offset="0.578" stop-color="#69B5B5"/>
<stop offset="0.612" stop-color="#B3D4D4"/>
<stop offset="0.751" stop-color="#C4D9D9"/>
<stop offset="0.938" stop-color="#D9E7E7"/>
</radialGradient>
<radialGradient id="paint15_radial_118_268" cx="0" cy="0" r="1" gradientUnits="userSpaceOnUse" gradientTransform="translate(148.207 169.446) scale(30.6785)">
<stop offset="0.578" stop-color="#69B5B5"/>
<stop offset="0.612" stop-color="#B3D4D4"/>
<stop offset="0.751" stop-color="#C4D9D9"/>
<stop offset="0.938" stop-color="#D9E7E7"/>
</radialGradient>
<radialGradient id="paint16_radial_118_268" cx="0" cy="0" r="1" gradientUnits="userSpaceOnUse" gradientTransform="translate(292.826 174.849) scale(21.4982 21.4982)">
<stop offset="0.578" stop-color="#69B5B5"/>
<stop offset="0.612" stop-color="#B3D4D4"/>
<stop offset="0.751" stop-color="#C4D9D9"/>
<stop offset="0.938" stop-color="#D9E7E7"/>
</radialGradient>
<radialGradient id="paint17_radial_118_268" cx="0" cy="0" r="1" gradientUnits="userSpaceOnUse" gradientTransform="translate(243.845 169.446) scale(30.6785 30.6785)">
<stop offset="0.578" stop-color="#69B5B5"/>
<stop offset="0.612" stop-color="#B3D4D4"/>
<stop offset="0.751" stop-color="#C4D9D9"/>
<stop offset="0.938" stop-color="#D9E7E7"/>
</radialGradient>
<radialGradient id="paint18_radial_118_268" cx="0" cy="0" r="1" gradientUnits="userSpaceOnUse" gradientTransform="translate(195.213 128.367) scale(77.8584 77.8584)">
<stop offset="0.525" stop-color="#69B5B5"/>
<stop offset="0.612" stop-color="#B3D4D4"/>
<stop offset="0.751" stop-color="#C4D9D9"/>
<stop offset="0.938" stop-color="#E4F2F2"/>
<stop offset="1" stop-color="#D0E1E1"/>
</radialGradient>
<linearGradient id="paint19_linear_118_268" x1="359.993" y1="277.634" x2="166.393" y2="278.157" gradientUnits="userSpaceOnUse">
<stop offset="0.839" stop-color="white" stop-opacity="0"/>
<stop offset="0.85" stop-color="#3A3583"/>
</linearGradient>
<radialGradient id="paint20_radial_118_268" cx="0" cy="0" r="1" gradientUnits="userSpaceOnUse" gradientTransform="translate(195.909 236.206) scale(32.596)">
<stop offset="0.763" stop-color="#4F8787"/>
<stop offset="1" stop-color="#D0E1E1" stop-opacity="0"/>
</radialGradient>
<radialGradient id="paint21_radial_118_268" cx="0" cy="0" r="1" gradientUnits="userSpaceOnUse" gradientTransform="translate(109.104 162.648) scale(48.8649 48.8649)">
<stop stop-color="#FF8742"/>
<stop offset="0.577" stop-color="#C98600"/>
<stop offset="1" stop-color="#8FFFEC"/>
</radialGradient>
<radialGradient id="paint22_radial_118_268" cx="0" cy="0" r="1" gradientUnits="userSpaceOnUse" gradientTransform="translate(281.554 162.648) scale(48.8649 48.8649)">
<stop stop-color="#FF8742"/>
<stop offset="0.577" stop-color="#C98600"/>
<stop offset="1" stop-color="#8FFFEC"/>
</radialGradient>
<radialGradient id="paint23_radial_118_268" cx="0" cy="0" r="1" gradientUnits="userSpaceOnUse" gradientTransform="translate(98.7606 160.614) scale(12.4341 12.4341)">
<stop stop-color="#6661AC"/>
<stop offset="0.512" stop-color="#322E69"/>
<stop offset="1" stop-color="#383475"/>
</radialGradient>
<radialGradient id="paint24_radial_118_268" cx="0" cy="0" r="1" gradientUnits="userSpaceOnUse" gradientTransform="translate(293.291 160.614) scale(12.4341 12.4341)">
<stop stop-color="#6661AC"/>
<stop offset="0.512" stop-color="#322E69"/>
<stop offset="1" stop-color="#383475"/>
</radialGradient>
<radialGradient id="paint25_radial_118_268" cx="0" cy="0" r="1" gradientUnits="userSpaceOnUse" gradientTransform="translate(209.39 70.9023) scale(97.0906 97.0906)">
<stop offset="0.086" stop-color="white"/>
<stop offset="0.617" stop-color="#B3D4D4"/>
<stop offset="0.717" stop-color="#C4D9D9"/>
<stop offset="1" stop-color="#D3E0E0"/>
</radialGradient>
<radialGradient id="paint26_radial_118_268" cx="0" cy="0" r="1" gradientUnits="userSpaceOnUse" gradientTransform="translate(196.955 47.08) scale(40.3237 40.3237)">
<stop offset="0.758" stop-color="white" stop-opacity="0"/>
<stop offset="0.995" stop-color="#3A3583"/>
</radialGradient>
<radialGradient id="paint27_radial_118_268" cx="0" cy="0" r="1" gradientUnits="userSpaceOnUse" gradientTransform="translate(196.723 102.685) scale(58.1033 58.1033)">
<stop offset="0.657" stop-color="white" stop-opacity="0"/>
<stop offset="0.721" stop-color="white" stop-opacity="0.7"/>
<stop offset="0.82" stop-color="white" stop-opacity="0"/>
</radialGradient>
<radialGradient id="paint28_radial_118_268" cx="0" cy="0" r="1" gradientUnits="userSpaceOnUse" gradientTransform="translate(185.916 122.498) scale(118.647 118.647)">
<stop offset="0.155" stop-color="#6661AC"/>
<stop offset="0.967" stop-color="#383475"/>
</radialGradient>
<radialGradient id="paint29_radial_118_268" cx="0" cy="0" r="1" gradientUnits="userSpaceOnUse" gradientTransform="translate(196.665 90.0764) scale(77.5098 77.5098)">
<stop offset="0.165" stop-color="#0B0B52"/>
<stop offset="1" stop-color="#6661AC" stop-opacity="0"/>
</radialGradient>
<radialGradient id="paint30_radial_118_268" cx="0" cy="0" r="1" gradientUnits="userSpaceOnUse" gradientTransform="translate(196.723 70.0889) scale(60.1369 60.1369)">
<stop offset="0.646" stop-color="white" stop-opacity="0"/>
<stop offset="0.73" stop-color="white" stop-opacity="0.5"/>
<stop offset="0.819" stop-color="white" stop-opacity="0"/>
</radialGradient>
<linearGradient id="paint31_linear_118_268" x1="212.934" y1="136.675" x2="213.341" y2="172.409" gradientUnits="userSpaceOnUse">
<stop offset="0.312" stop-color="white" stop-opacity="0"/>
<stop offset="1" stop-color="#8FFFEC"/>
</linearGradient>
</defs>
</svg>
