<svg width="54" height="45" viewBox="0 0 54 45" fill="none" xmlns="http://www.w3.org/2000/svg">
<path fill-rule="evenodd" clip-rule="evenodd" d="M11.8204 0.226196H43.3413C49.8689 0.226196 54.1082 6.11265 52.8081 13.3724C51.508 20.6321 45.1607 26.5185 38.6331 26.5185H34.6927L36.2612 17.7538H40.2017C41.3133 17.7045 42.3793 17.2483 43.2338 16.456C44.0883 15.6637 44.6837 14.5797 44.9272 13.3724C45.0534 12.8445 45.0663 12.2911 44.9651 11.7567C44.8638 11.2223 44.6511 10.7217 44.3442 10.2954C44.0372 9.86907 43.6445 9.52885 43.1978 9.30211C42.751 9.07538 42.2626 8.96846 41.7719 8.98998H11.8204C8.68546 8.98998 5.67888 10.375 3.46212 12.8404C1.24536 15.3058 0 18.6496 0 22.1361V13.3724C0 9.88577 1.24536 6.542 3.46212 4.07662C5.67888 1.61123 8.68546 0.226196 11.8204 0.226196ZM28.3891 17.7113L25.2338 35.3232L35.4604 35.2815C35.4604 37.6093 34.6313 39.8423 33.1545 41.4918C31.6777 43.1414 29.6734 44.0731 27.5804 44.0831L0 44.2168C0 44.2168 1.73494 34.9394 3.30345 26.2124C3.73456 23.8153 4.89916 21.6584 6.59909 20.1086C8.29903 18.5589 10.4293 17.7121 12.6273 17.7123L9.47203 35.328L17.5699 35.2825L20.5012 17.7539L28.3891 17.7113Z" fill="url(#paint0_radial_118_4103)"/>
<defs>
<radialGradient id="paint0_radial_118_4103" cx="0" cy="0" r="1" gradientUnits="userSpaceOnUse" gradientTransform="translate(24.6333 8.98149) rotate(86.933) scale(35.2859 42.5086)">
<stop stop-color="#1C4953"/>
<stop offset="1" stop-color="#235D6A"/>
</radialGradient>
</defs>
</svg>
