<svg width="188" height="205" viewBox="0 0 188 205" fill="none" xmlns="http://www.w3.org/2000/svg">
<path d="M177.317 142.086C175.063 146.839 171.963 151.143 168.167 154.786C167.195 155.689 166.148 156.509 165.037 157.236C164.041 157.884 162.986 158.44 161.887 158.896C146.197 165.376 130.137 150.626 112.188 152.366C97.1875 153.836 86.3175 162.186 76.7275 169.206C73.5795 171.6 70.2866 173.798 66.8675 175.786C65.9608 176.292 65.0508 176.752 64.1375 177.166C63.1375 177.596 62.1375 178.006 61.0175 178.386C47.1175 183.156 23.6375 182.976 13.2275 172.716C2.31749 161.976 -10.9425 127.146 19.0575 82.3157C52.3575 32.4457 143.327 25.5557 167.628 42.0457C192.777 59.0657 191.767 113.436 177.317 142.086Z" fill="#E5F6FF"/>
<path d="M167.697 73.9056C167.679 73.9403 167.655 73.971 167.625 73.9959C167.595 74.0208 167.56 74.0395 167.523 74.0507C167.485 74.0619 167.446 74.0654 167.407 74.0611C167.369 74.0568 167.331 74.0448 167.297 74.0257C167.162 73.9403 167.063 73.8088 167.017 73.6556C166.961 73.5405 166.934 73.4136 166.937 73.2856C166.956 73.1592 167.017 73.0425 167.109 72.9539C167.201 72.8653 167.32 72.8096 167.447 72.7956C167.574 72.7917 167.7 72.821 167.812 72.8806C167.925 72.9402 168.019 73.0282 168.087 73.1357C168.124 73.1851 168.151 73.2418 168.165 73.3021C168.178 73.3624 168.179 73.425 168.167 73.4856C168.153 73.5455 168.118 73.5985 168.069 73.6351C168.019 73.6717 167.959 73.6896 167.897 73.6856L167.697 73.9056Z" fill="#E5F6FF"/>
<path d="M175.057 57.1057C175.398 57.0836 175.728 56.9816 176.022 56.8078C176.316 56.6341 176.564 56.3935 176.747 56.1057C176.524 55.9008 176.262 55.7412 175.977 55.6357C175.834 55.588 175.68 55.5834 175.534 55.6225C175.389 55.6616 175.258 55.7427 175.158 55.8557C174.908 56.1857 175.077 56.6557 175.257 57.0257L174.938 56.9157L175.057 57.1057Z" fill="#E5F6FF"/>
<path d="M170.058 53.1957C170.103 53.2857 170.17 53.3627 170.253 53.4194C170.336 53.4761 170.432 53.5106 170.533 53.5196C170.633 53.5286 170.734 53.5119 170.826 53.4709C170.917 53.43 170.997 53.3662 171.058 53.2857C170.982 53.0745 170.838 52.8949 170.648 52.7757C170.553 52.7219 170.444 52.6997 170.336 52.7123C170.228 52.7249 170.127 52.7716 170.048 52.8457C170.012 52.8863 169.987 52.9352 169.974 52.9879C169.962 53.0407 169.962 53.0956 169.976 53.148C169.99 53.2004 170.017 53.2486 170.053 53.2883C170.09 53.328 170.136 53.358 170.188 53.3757L170.058 53.1957Z" fill="#E5F6FF"/>
<path d="M171.957 55.6056C171.677 55.6056 171.607 56.0156 171.737 56.2556C171.904 56.4738 172.084 56.6809 172.277 56.8756C172.359 56.9922 172.414 57.1248 172.44 57.2645C172.466 57.4041 172.461 57.5477 172.427 57.6856C172.412 57.7674 172.377 57.844 172.324 57.9086C172.272 57.9732 172.204 58.0238 172.127 58.0556C172.022 58.0807 171.913 58.0807 171.807 58.0556C171.282 57.9127 170.804 57.6292 170.427 57.2356C170.241 57.0351 170.117 56.7839 170.073 56.5134C170.028 56.243 170.065 55.9654 170.177 55.7156C170.272 55.5516 170.409 55.4154 170.573 55.3207C170.737 55.226 170.923 55.1761 171.112 55.1761C171.302 55.1761 171.488 55.226 171.652 55.3207C171.816 55.4154 171.953 55.5516 172.047 55.7156L171.957 55.6056Z" fill="#E5F6FF"/>
<path d="M172.057 49.8957L172.407 49.6257C172.287 49.4257 172.157 49.2157 171.937 49.1557C171.717 49.0957 171.427 49.2957 171.517 49.5057C171.555 49.5814 171.614 49.6442 171.687 49.6857L172.347 50.1757L172.057 49.8957Z" fill="#E5F6FF"/>
<path d="M167.997 66.3157C167.898 66.3131 167.804 66.2719 167.735 66.2009C167.666 66.1299 167.627 66.0348 167.627 65.9357C167.629 65.8371 167.651 65.7399 167.693 65.6504C167.734 65.5609 167.794 65.481 167.867 65.4157C167.953 65.3338 168.055 65.2722 168.167 65.2357C168.232 65.2227 168.299 65.2227 168.365 65.2358C168.43 65.2489 168.491 65.2749 168.546 65.3121C168.601 65.3493 168.648 65.3971 168.684 65.4527C168.721 65.5082 168.745 65.5704 168.757 65.6357C168.77 65.7698 168.731 65.9037 168.65 66.011C168.568 66.1183 168.45 66.1913 168.317 66.2157C168.181 66.2283 168.045 66.1933 167.932 66.1167C167.819 66.0401 167.736 65.9266 167.697 65.7957L167.997 66.3157Z" fill="#E5F6FF"/>
<path d="M171.127 46.0356C171.187 45.9056 171.237 45.7756 171.287 45.6456C171.21 45.5582 171.105 45.5004 170.99 45.4821C170.875 45.4639 170.758 45.4863 170.657 45.5456C170.609 45.5768 170.568 45.6173 170.537 45.6648C170.505 45.7124 170.483 45.7658 170.473 45.822C170.463 45.8781 170.464 45.9358 170.477 45.9914C170.49 46.0471 170.514 46.0996 170.547 46.1456C170.582 46.1894 170.626 46.2247 170.676 46.249C170.726 46.2733 170.782 46.2859 170.837 46.2859C170.893 46.2859 170.948 46.2733 170.998 46.249C171.049 46.2247 171.093 46.1894 171.127 46.1456V46.0356Z" fill="#E5F6FF"/>
<path d="M114.468 143.116C112.571 141.611 110.354 140.56 107.988 140.046C107.61 139.943 107.215 139.919 106.828 139.976C106.467 140.09 106.141 140.292 105.879 140.565C105.617 140.837 105.427 141.171 105.328 141.536C105.049 142.424 105.042 143.375 105.31 144.266C105.577 145.157 106.106 145.948 106.828 146.536C107.561 147.098 108.42 147.475 109.33 147.636C110.241 147.796 111.176 147.734 112.058 147.456C113.047 147.207 113.898 146.578 114.428 145.706C114.677 145.262 114.764 144.746 114.672 144.245C114.581 143.745 114.318 143.292 113.928 142.966C113.854 142.992 113.787 143.037 113.735 143.095C113.682 143.154 113.645 143.225 113.627 143.302C113.61 143.378 113.611 143.458 113.632 143.534C113.653 143.61 113.693 143.679 113.748 143.736L114.468 143.116Z" fill="white"/>
<path d="M107.128 144.316C107.005 143.834 106.762 143.392 106.421 143.032C106.079 142.671 105.651 142.404 105.178 142.256C104.812 142.586 104.531 142.999 104.357 143.46C104.183 143.921 104.122 144.416 104.178 144.906C104.256 145.392 104.525 145.828 104.924 146.116C105.323 146.405 105.821 146.523 106.308 146.446C106.534 146.375 106.737 146.245 106.897 146.07C107.057 145.895 107.167 145.68 107.217 145.448C107.267 145.217 107.254 144.976 107.181 144.75C107.107 144.525 106.975 144.323 106.798 144.166L107.128 144.316Z" fill="white"/>
<path d="M99.2174 140.366C99.3007 140.151 99.3323 139.919 99.3097 139.69C99.2871 139.461 99.211 139.24 99.0874 139.046C98.8979 139.126 98.7275 139.245 98.5874 139.396C98.5178 139.471 98.4721 139.566 98.4561 139.667C98.4401 139.768 98.4544 139.872 98.4974 139.966C98.6274 140.216 98.9674 140.236 99.2474 140.226L99.0874 140.396L99.2174 140.366Z" fill="white"/>
<path d="M100.968 140.846C101.103 140.889 101.222 140.973 101.308 141.086C101.141 141.138 100.965 141.153 100.792 141.129C100.619 141.105 100.453 141.042 100.308 140.946C100.128 140.856 99.9277 140.706 99.9477 140.506C99.9677 140.306 100.078 140.276 100.138 140.146C100.198 140.016 100.198 139.506 100.468 139.416C100.544 139.4 100.624 139.412 100.693 139.448C100.762 139.484 100.817 139.544 100.848 139.616C100.911 139.76 100.936 139.919 100.918 140.076V141.076L100.968 140.846Z" fill="white"/>
<path opacity="0.5" d="M79.1877 132.746C79.0577 132.486 78.6077 132.646 78.5577 132.936C78.5512 133.079 78.5755 133.221 78.629 133.354C78.6825 133.487 78.7639 133.607 78.8677 133.706C79.0374 133.605 79.1736 133.456 79.259 133.278C79.3444 133.1 79.3753 132.901 79.3477 132.706L79.1877 132.746Z" fill="white"/>
<path d="M74.4976 141.916C74.5102 141.982 74.4977 142.05 74.4626 142.107C74.4275 142.165 74.3722 142.207 74.3076 142.226C74.24 142.24 74.17 142.24 74.1025 142.224C74.0351 142.209 73.972 142.178 73.9176 142.136C73.8478 142.097 73.7918 142.038 73.7576 141.966C73.738 141.925 73.7272 141.88 73.7258 141.834C73.7243 141.789 73.7323 141.744 73.7492 141.701C73.7661 141.659 73.7916 141.621 73.824 141.589C73.8564 141.557 73.8951 141.532 73.9376 141.516C74.0253 141.489 74.1199 141.495 74.2031 141.534C74.2862 141.573 74.352 141.641 74.3876 141.726C74.4171 141.814 74.4142 141.91 74.3794 141.996C74.3446 142.082 74.2801 142.153 74.1976 142.196L74.4976 141.916Z" fill="white"/>
<path d="M95.4075 142.376C95.4766 142.371 95.5433 142.349 95.6016 142.312C95.6599 142.274 95.7077 142.223 95.7407 142.162C95.7736 142.101 95.7906 142.033 95.79 141.963C95.7895 141.894 95.7714 141.826 95.7374 141.766C95.585 141.759 95.4345 141.801 95.3075 141.886C95.2452 141.927 95.1991 141.988 95.1772 142.059C95.1553 142.13 95.1589 142.207 95.1875 142.276C95.2475 142.416 95.4675 142.466 95.5475 142.336L95.4075 142.376Z" fill="white"/>
<path d="M101.867 141.936C101.98 141.798 102.06 141.636 102.1 141.463C102.14 141.289 102.139 141.109 102.097 140.936L101.287 141.206C101.157 141.235 101.037 141.297 100.937 141.386C100.9 141.438 100.873 141.498 100.86 141.562C100.847 141.625 100.848 141.691 100.862 141.754C100.876 141.818 100.904 141.877 100.943 141.929C100.981 141.981 101.031 142.024 101.087 142.056C101.206 142.109 101.339 142.125 101.467 142.102C101.596 142.078 101.714 142.017 101.807 141.926L101.867 141.936Z" fill="white"/>
<path opacity="0.5" d="M78.3677 141.066L78.0877 141.136C78.0709 141.213 78.0805 141.293 78.1149 141.364C78.1494 141.434 78.2067 141.491 78.2777 141.526C78.3519 141.551 78.4334 141.547 78.5045 141.513C78.5755 141.48 78.6305 141.419 78.6577 141.346C78.6654 141.308 78.6644 141.269 78.6547 141.232C78.645 141.195 78.6269 141.16 78.6017 141.131C78.5766 141.102 78.5451 141.08 78.5097 141.065C78.4743 141.05 78.436 141.043 78.3977 141.046L78.3677 141.066Z" fill="white"/>
<path d="M97.4273 141.856C97.3673 142.026 97.5873 142.186 97.7773 142.176C97.96 142.128 98.1402 142.071 98.3173 142.006C98.4113 141.986 98.5085 141.988 98.6019 142.01C98.6952 142.033 98.7825 142.075 98.8573 142.136C98.904 142.168 98.942 142.212 98.9682 142.262C98.9943 142.313 99.0077 142.369 99.0073 142.426C98.9808 142.497 98.9399 142.561 98.8873 142.616C98.6547 142.904 98.3466 143.122 97.9973 143.246C97.8228 143.306 97.634 143.313 97.4557 143.265C97.2773 143.217 97.1176 143.116 96.9973 142.976C96.9178 142.874 96.8671 142.753 96.8506 142.624C96.8341 142.496 96.8524 142.366 96.9035 142.248C96.9547 142.129 97.0368 142.026 97.1412 141.95C97.2457 141.874 97.3687 141.828 97.4973 141.816L97.4273 141.856Z" fill="white"/>
<path d="M100.258 137.716C100.316 137.615 100.333 137.496 100.307 137.383C100.281 137.27 100.214 137.171 100.118 137.106C100.016 137.047 99.9002 137.016 99.7826 137.016C99.665 137.016 99.5495 137.047 99.4476 137.106C99.3576 137.166 99.2676 137.256 99.3076 137.356C99.3476 137.456 99.3976 137.456 99.4676 137.486L100.268 137.806L100.258 137.716Z" fill="white"/>
<path d="M89.6073 134.966C89.5861 135.081 89.5388 135.19 89.469 135.285C89.3992 135.379 89.3087 135.456 89.2045 135.51C89.1003 135.564 88.9851 135.594 88.8677 135.596C88.7503 135.599 88.6339 135.575 88.5273 135.526C88.587 135.155 88.7499 134.808 88.9973 134.526C89.0593 134.454 89.136 134.396 89.2223 134.357C89.3086 134.317 89.4024 134.297 89.4973 134.297C89.5923 134.297 89.6861 134.317 89.7724 134.357C89.8586 134.396 89.9354 134.454 89.9973 134.526L89.8973 135.166L89.6073 134.966Z" fill="white"/>
<path d="M123.848 149.046C123.874 149.051 123.899 149.062 123.921 149.078C123.943 149.095 123.961 149.115 123.974 149.139C123.988 149.162 123.996 149.189 123.998 149.216C124 149.243 123.997 149.27 123.988 149.296C123.95 149.396 123.88 149.481 123.788 149.536C123.716 149.588 123.634 149.625 123.548 149.646C123.461 149.65 123.374 149.626 123.302 149.578C123.23 149.529 123.176 149.458 123.148 149.376C123.126 149.291 123.127 149.203 123.15 149.119C123.173 149.035 123.217 148.958 123.278 148.896C123.304 148.864 123.338 148.838 123.376 148.821C123.414 148.803 123.456 148.795 123.498 148.796C123.519 148.794 123.54 148.797 123.56 148.804C123.579 148.811 123.598 148.821 123.614 148.835C123.629 148.849 123.642 148.866 123.652 148.885C123.661 148.904 123.666 148.925 123.668 148.946L123.848 149.046Z" fill="white"/>
<path d="M93.8975 140.216C93.8975 140.116 93.8475 140.016 93.8275 139.916C93.6713 139.918 93.5216 139.979 93.4075 140.086C93.3075 140.206 93.3475 140.436 93.5075 140.446C93.5654 140.441 93.6209 140.42 93.6675 140.386L94.1575 140.116L93.8975 140.216Z" fill="white"/>
<path d="M88.6375 139.316C88.5326 139.091 88.3868 138.887 88.2074 138.716C88.114 138.635 87.9987 138.583 87.876 138.567C87.7533 138.551 87.6286 138.571 87.5175 138.626C87.4149 138.696 87.3378 138.798 87.2975 138.916C87.2457 139.089 87.2651 139.277 87.3514 139.436C87.4377 139.595 87.5837 139.714 87.7574 139.766C87.9312 139.817 88.1183 139.798 88.2777 139.712C88.4371 139.625 88.5557 139.479 88.6075 139.306L88.6375 139.316Z" fill="white"/>
<path d="M87.3473 137.026L86.9073 136.786C86.8177 136.878 86.7524 136.992 86.7173 137.116C86.8075 137.198 86.9252 137.243 87.0473 137.243C87.1694 137.243 87.287 137.198 87.3773 137.116L87.3473 137.026Z" fill="white"/>
<path d="M101.398 129.546C100.454 129.326 99.4717 129.326 98.5277 129.546C98.375 129.575 98.2292 129.633 98.0977 129.716C97.9869 129.819 97.9026 129.947 97.8521 130.09C97.8016 130.233 97.7864 130.386 97.8077 130.536C97.8577 130.902 98.0156 131.245 98.2614 131.521C98.5072 131.797 98.8297 131.994 99.1877 132.086C99.5492 132.167 99.9249 132.16 100.283 132.066C100.642 131.972 100.972 131.794 101.248 131.546C101.557 131.296 101.76 130.939 101.818 130.546C101.832 130.342 101.774 130.14 101.656 129.974C101.537 129.808 101.365 129.689 101.168 129.636C101.146 129.658 101.13 129.686 101.121 129.716C101.113 129.747 101.112 129.779 101.119 129.81C101.126 129.84 101.14 129.869 101.161 129.893C101.182 129.916 101.208 129.935 101.238 129.946L101.398 129.546Z" fill="white"/>
<path d="M101.897 149.506C101.833 149.281 101.719 149.075 101.563 148.901C101.407 148.728 101.214 148.593 100.997 148.506C100.895 148.688 100.831 148.888 100.807 149.096C100.797 149.198 100.817 149.301 100.865 149.391C100.913 149.482 100.987 149.557 101.077 149.606C101.337 149.726 101.617 149.536 101.837 149.366V149.596L101.897 149.506Z" fill="white"/>
<path d="M98.5777 149.596C98.5032 149.488 98.3935 149.411 98.2677 149.376C98.1422 149.363 98.0161 149.391 97.9077 149.456C97.5843 149.596 97.2498 149.71 96.9077 149.796L98.4377 150.536C98.4804 150.553 98.5182 150.58 98.5477 150.616C98.6477 150.726 98.5477 150.916 98.5477 151.066C98.5477 151.216 98.8577 151.396 99.0877 151.406C100.778 151.516 99.0577 150.116 98.5777 149.596Z" fill="white"/>
<path d="M104.957 149.176C104.965 149.002 104.933 148.829 104.864 148.669C104.795 148.51 104.69 148.368 104.557 148.256L104.067 148.946C103.979 149.048 103.921 149.172 103.897 149.306C103.898 149.37 103.913 149.434 103.94 149.492C103.968 149.551 104.007 149.603 104.057 149.645C104.106 149.686 104.164 149.717 104.226 149.734C104.288 149.752 104.354 149.756 104.417 149.746C104.545 149.72 104.662 149.655 104.752 149.56C104.841 149.465 104.899 149.345 104.917 149.216L104.957 149.176Z" fill="white"/>
<path d="M101.137 146.766C101.127 146.648 101.071 146.539 100.981 146.462C100.892 146.386 100.775 146.347 100.657 146.356C100.542 146.37 100.432 146.414 100.338 146.484C100.245 146.554 100.173 146.648 100.127 146.756C100.127 146.856 100.127 146.986 100.127 147.036C100.161 147.05 100.196 147.058 100.232 147.058C100.269 147.058 100.304 147.05 100.337 147.036L101.167 146.816L101.137 146.766Z" fill="white"/>
<path d="M103.707 143.626C103.603 143.401 103.457 143.197 103.277 143.026C103.186 142.944 103.073 142.892 102.951 142.876C102.83 142.86 102.707 142.881 102.597 142.936C102.495 143.004 102.415 143.101 102.367 143.216C102.313 143.393 102.33 143.585 102.413 143.751C102.497 143.917 102.642 144.044 102.817 144.106C102.996 144.152 103.186 144.127 103.347 144.035C103.507 143.944 103.626 143.793 103.677 143.616L103.707 143.626Z" fill="white"/>
<path d="M94.3776 135.406C94.1276 135.406 93.9976 135.696 93.9276 135.946C93.8576 136.196 93.7676 136.466 93.5376 136.536C93.5064 136.551 93.4722 136.559 93.4376 136.559C93.403 136.559 93.3688 136.551 93.3376 136.536C93.1976 136.426 93.3376 136.216 93.3376 136.046C93.3524 135.906 93.3524 135.765 93.3376 135.626C93.3369 135.459 93.3861 135.295 93.4787 135.156C93.5713 135.017 93.7032 134.909 93.8576 134.846C93.9467 134.855 94.0311 134.891 94.1004 134.947C94.1697 135.004 94.2209 135.08 94.2476 135.166C94.2752 135.252 94.2766 135.345 94.2517 135.432C94.2268 135.519 94.1766 135.597 94.1076 135.656L94.3776 135.406Z" fill="white"/>
<path d="M88.5577 137.476C88.3077 137.476 88.1777 137.776 88.1077 138.016C88.0377 138.256 87.9577 138.536 87.7177 138.606C87.6865 138.621 87.6524 138.629 87.6177 138.629C87.5831 138.629 87.5489 138.621 87.5177 138.606C87.3877 138.496 87.5177 138.286 87.5177 138.116C87.5377 137.976 87.5377 137.835 87.5177 137.696C87.5205 137.528 87.5721 137.365 87.6663 137.227C87.7604 137.088 87.893 136.98 88.0477 136.916C88.1368 136.925 88.2212 136.961 88.2905 137.017C88.3598 137.074 88.411 137.15 88.4377 137.236C88.4628 137.323 88.462 137.416 88.4354 137.503C88.4088 137.59 88.3575 137.667 88.2877 137.726L88.5577 137.476Z" fill="white"/>
<path d="M84.5375 135.226C84.3765 135.102 84.1877 135.019 83.9875 134.986H83.8875C83.8581 134.998 83.8321 135.017 83.8113 135.042C83.7905 135.066 83.7755 135.095 83.7675 135.126C83.7463 135.2 83.7483 135.279 83.7733 135.353C83.7983 135.426 83.8451 135.49 83.9075 135.536C83.9698 135.582 84.0428 135.612 84.1198 135.622C84.1967 135.633 84.275 135.624 84.3475 135.596C84.3896 135.586 84.4293 135.568 84.4638 135.542C84.4984 135.517 84.5269 135.484 84.5475 135.446C84.5645 135.407 84.5689 135.364 84.5599 135.322C84.5509 135.281 84.529 135.244 84.4975 135.216V135.286L84.5375 135.226Z" fill="white"/>
<path d="M111.568 146.716C111.508 146.491 111.397 146.283 111.242 146.109C111.087 145.936 110.894 145.801 110.678 145.716C110.574 145.894 110.51 146.091 110.488 146.296C110.477 146.398 110.497 146.501 110.545 146.592C110.593 146.682 110.667 146.757 110.758 146.806C111.018 146.926 111.298 146.736 111.518 146.566V146.796L111.568 146.716Z" fill="white"/>
<path d="M109.728 150.606C109.781 150.562 109.823 150.505 109.848 150.44C109.873 150.376 109.881 150.306 109.871 150.237C109.861 150.169 109.833 150.104 109.79 150.049C109.748 149.995 109.692 149.952 109.628 149.926C109.5 150.011 109.402 150.133 109.348 150.276C109.326 150.347 109.328 150.423 109.354 150.494C109.379 150.564 109.426 150.624 109.488 150.666C109.52 150.682 109.556 150.69 109.592 150.69C109.628 150.69 109.663 150.681 109.696 150.664C109.728 150.648 109.756 150.624 109.777 150.595C109.798 150.565 109.812 150.531 109.818 150.496L109.728 150.606Z" fill="white"/>
<path d="M104.487 145.016C104.541 144.971 104.582 144.913 104.607 144.848C104.632 144.782 104.64 144.712 104.63 144.643C104.62 144.574 104.592 144.508 104.55 144.453C104.507 144.397 104.451 144.354 104.387 144.326C104.26 144.408 104.165 144.532 104.117 144.676C104.093 144.747 104.093 144.824 104.119 144.895C104.144 144.966 104.193 145.026 104.257 145.066C104.29 145.082 104.325 145.09 104.362 145.09C104.398 145.09 104.433 145.081 104.465 145.064C104.498 145.048 104.525 145.024 104.547 144.995C104.568 144.965 104.582 144.931 104.587 144.896L104.487 145.016Z" fill="white"/>
<path d="M111.057 148.976C111.107 149.156 111.387 149.146 111.527 149.026C111.667 148.906 111.727 148.706 111.847 148.566C111.915 148.496 111.996 148.441 112.085 148.403C112.175 148.366 112.27 148.346 112.367 148.346C112.425 148.343 112.481 148.356 112.532 148.382C112.583 148.409 112.626 148.448 112.657 148.496C112.678 148.568 112.678 148.644 112.657 148.716C112.64 149.074 112.522 149.421 112.317 149.716C112.21 149.875 112.057 149.998 111.879 150.067C111.7 150.137 111.504 150.151 111.317 150.106C111.193 150.07 111.08 150.001 110.991 149.907C110.901 149.813 110.839 149.697 110.809 149.571C110.78 149.444 110.784 149.312 110.823 149.189C110.861 149.065 110.932 148.953 111.027 148.866L111.057 148.976Z" fill="white"/>
<path d="M92.6273 137.236C92.6773 137.416 92.9573 137.416 93.0973 137.286C93.2152 137.144 93.3221 136.994 93.4173 136.836C93.4818 136.762 93.5621 136.704 93.6522 136.666C93.7422 136.628 93.8397 136.611 93.9373 136.616C93.9937 136.611 94.0503 136.622 94.1012 136.647C94.1521 136.671 94.1956 136.709 94.2273 136.756C94.2468 136.828 94.2468 136.904 94.2273 136.976C94.2107 137.334 94.0929 137.681 93.8873 137.976C93.7803 138.135 93.6272 138.258 93.4484 138.327C93.2697 138.397 93.0739 138.411 92.8873 138.366C92.7644 138.328 92.6531 138.259 92.5639 138.167C92.4747 138.074 92.4105 137.96 92.3773 137.836C92.3489 137.71 92.3543 137.579 92.393 137.456C92.4316 137.333 92.5021 137.223 92.5973 137.136L92.6273 137.236Z" fill="white"/>
<path d="M93.5977 135.016C93.6577 135.186 93.9277 135.186 94.0677 135.016C94.2077 134.846 94.2677 134.706 94.3977 134.566C94.4618 134.492 94.542 134.433 94.6322 134.395C94.7223 134.357 94.82 134.34 94.9177 134.346C94.9728 134.341 95.0281 134.352 95.0775 134.376C95.1269 134.401 95.1685 134.439 95.1977 134.486C95.2173 134.558 95.2173 134.634 95.1977 134.706C95.1697 135.062 95.0529 135.406 94.8577 135.706C94.7442 135.857 94.5899 135.973 94.4128 136.041C94.2358 136.108 94.0433 136.124 93.8577 136.086C93.7339 136.049 93.6217 135.982 93.5322 135.889C93.4428 135.796 93.3792 135.681 93.3477 135.556C93.3201 135.431 93.325 135.301 93.3617 135.178C93.3985 135.056 93.466 134.945 93.5577 134.856L93.5977 135.016Z" fill="white"/>
<path d="M96.6476 137.186C96.7076 137.366 96.9776 137.366 97.1176 137.186C97.2576 137.006 97.3176 136.876 97.4476 136.736C97.5117 136.662 97.5919 136.603 97.682 136.565C97.7722 136.527 97.8699 136.51 97.9676 136.516C98.0227 136.511 98.0779 136.521 98.1273 136.546C98.1767 136.571 98.2184 136.609 98.2476 136.656C98.2672 136.728 98.2672 136.804 98.2476 136.876C98.2227 137.233 98.1055 137.577 97.9076 137.876C97.8007 138.035 97.6475 138.158 97.4688 138.227C97.29 138.297 97.0942 138.31 96.9076 138.266C96.7838 138.229 96.6716 138.161 96.5821 138.068C96.4927 137.976 96.429 137.861 96.3976 137.736C96.368 137.611 96.3718 137.48 96.4087 137.357C96.4456 137.235 96.5142 137.124 96.6076 137.036L96.6476 137.186Z" fill="white"/>
<path d="M77.3176 154.956C77.3176 155.136 77.6476 155.126 77.7876 154.956C77.9276 154.786 77.9876 154.646 78.1176 154.506C78.182 154.435 78.2608 154.378 78.3488 154.34C78.4367 154.302 78.5318 154.284 78.6276 154.286C78.6842 154.28 78.7411 154.29 78.7922 154.315C78.8434 154.34 78.8867 154.378 78.9176 154.426C78.9428 154.5 78.9428 154.581 78.9176 154.656C78.8989 155.012 78.785 155.358 78.5876 155.656C78.4753 155.809 78.3215 155.927 78.1444 155.996C77.9673 156.065 77.7741 156.082 77.5876 156.046C77.4638 156.009 77.3516 155.941 77.2621 155.848C77.1727 155.755 77.1091 155.641 77.0776 155.516C77.0482 155.389 77.0521 155.257 77.0889 155.133C77.1257 155.008 77.1942 154.896 77.2876 154.806L77.3176 154.956Z" fill="white"/>
<path d="M107.228 149.776L106.988 149.586C106.863 149.682 106.778 149.821 106.748 149.976C106.748 150.126 106.918 150.286 107.048 150.196C107.178 150.106 107.118 150.106 107.148 150.056C107.178 150.006 107.288 149.716 107.368 149.546L107.228 149.776Z" fill="white"/>
<path d="M87.5473 148.316C87.445 148.092 87.2988 147.891 87.1173 147.726C87.0252 147.642 86.9097 147.589 86.7864 147.573C86.6631 147.557 86.5378 147.579 86.4273 147.636C86.3254 147.703 86.2482 147.801 86.2073 147.916C86.1529 148.093 86.1694 148.285 86.2532 148.451C86.3371 148.617 86.4819 148.744 86.6573 148.806C86.8362 148.849 87.0247 148.821 87.1833 148.727C87.3418 148.634 87.458 148.483 87.5073 148.306L87.5473 148.316Z" fill="white"/>
<path d="M107.228 142.196C107.304 142.233 107.37 142.289 107.418 142.359C107.466 142.43 107.495 142.511 107.502 142.596C107.509 142.68 107.494 142.766 107.458 142.843C107.422 142.92 107.367 142.986 107.298 143.036C107.104 143.019 106.917 142.961 106.748 142.866C106.798 142.653 106.927 142.468 107.108 142.346L107.228 142.196Z" fill="white"/>
<path opacity="0.5" d="M85.7176 145.766C85.6371 145.65 85.531 145.554 85.4076 145.486C85.3499 145.447 85.282 145.426 85.2126 145.426C85.1431 145.426 85.0752 145.447 85.0176 145.486C84.8476 145.646 84.9476 145.936 84.8676 146.156C84.7876 146.376 84.5176 146.516 84.5176 146.746C84.5253 146.802 84.545 146.855 84.5754 146.903C84.6058 146.95 84.6462 146.991 84.6937 147.021C84.7413 147.051 84.7948 147.071 84.8507 147.079C84.9067 147.087 84.9636 147.082 85.0176 147.066C85.2371 146.984 85.4211 146.829 85.5376 146.626C85.6725 146.47 85.7594 146.279 85.7876 146.076C85.802 145.973 85.7799 145.869 85.725 145.781C85.6701 145.693 85.586 145.628 85.4876 145.596L85.7176 145.766Z" fill="white"/>
<path d="M97.0575 140.126C97.2451 139.666 97.3132 139.166 97.2555 138.673C97.1978 138.18 97.0161 137.71 96.7275 137.306C96.2345 137.347 95.7584 137.505 95.3391 137.768C94.9199 138.031 94.5696 138.39 94.3175 138.816C94.0912 139.253 94.0461 139.761 94.1922 140.231C94.3382 140.701 94.6634 141.094 95.0975 141.326C96.0075 141.696 97.2175 140.706 96.8475 139.786L97.0575 140.126Z" fill="white"/>
<path d="M108.247 140.156C108.217 140.216 108.166 140.263 108.103 140.287C108.04 140.311 107.97 140.31 107.907 140.286C107.846 140.256 107.792 140.214 107.747 140.162C107.702 140.11 107.669 140.05 107.647 139.986C107.628 139.907 107.628 139.824 107.647 139.746C107.657 139.701 107.675 139.658 107.702 139.62C107.728 139.583 107.763 139.551 107.802 139.528C107.842 139.504 107.886 139.489 107.931 139.484C107.977 139.478 108.023 139.482 108.067 139.496C108.153 139.525 108.224 139.586 108.266 139.666C108.309 139.745 108.32 139.838 108.297 139.926C108.27 140.015 108.211 140.091 108.132 140.14C108.054 140.19 107.96 140.209 107.867 140.196L108.247 140.156Z" fill="white"/>
<path d="M102.818 140.196C102.588 140.296 102.558 140.606 102.568 140.856C102.578 141.106 102.568 141.396 102.398 141.546C102.369 141.562 102.336 141.571 102.303 141.571C102.269 141.571 102.237 141.562 102.208 141.546C102.038 141.496 102.088 141.256 102.068 141.076C102.033 140.94 101.982 140.81 101.918 140.686C101.861 140.528 101.853 140.358 101.894 140.195C101.935 140.033 102.023 139.887 102.148 139.776C102.235 139.756 102.327 139.762 102.411 139.793C102.495 139.824 102.568 139.879 102.621 139.952C102.674 140.024 102.705 140.11 102.71 140.2C102.714 140.289 102.693 140.378 102.648 140.456L102.818 140.196Z" fill="white"/>
<path d="M95.4673 143.226L95.2073 143.116C95.1471 143.168 95.1064 143.239 95.0918 143.317C95.0773 143.395 95.0898 143.476 95.1273 143.546C95.1485 143.578 95.176 143.607 95.2083 143.628C95.2406 143.65 95.277 143.665 95.3153 143.673C95.3536 143.68 95.3929 143.68 95.4311 143.672C95.4692 143.664 95.5053 143.648 95.5373 143.626C95.5683 143.602 95.5935 143.572 95.6109 143.538C95.6282 143.503 95.6373 143.465 95.6373 143.426C95.6373 143.387 95.6282 143.349 95.6109 143.314C95.5935 143.279 95.5683 143.249 95.5373 143.226H95.4673Z" fill="white"/>
<path d="M100.948 142.966C100.982 143.004 101.001 143.054 101.001 143.106C101.001 143.157 100.982 143.207 100.948 143.246C100.857 143.308 100.747 143.336 100.638 143.326C100.551 143.322 100.466 143.302 100.388 143.266C100.313 143.22 100.257 143.151 100.228 143.069C100.199 142.987 100.199 142.898 100.228 142.816C100.258 142.735 100.309 142.664 100.376 142.61C100.443 142.555 100.523 142.519 100.608 142.506C100.694 142.491 100.783 142.509 100.858 142.556C100.884 142.586 100.898 142.625 100.898 142.666C100.898 142.706 100.884 142.745 100.858 142.776L100.948 142.966Z" fill="white"/>
<path d="M99.5676 151.116C100.01 150.893 100.388 150.561 100.666 150.152C100.944 149.742 101.113 149.269 101.158 148.776C100.763 148.477 100.301 148.281 99.8128 148.204C99.3243 148.127 98.8244 148.173 98.3576 148.336C98.1296 148.424 97.9213 148.557 97.7446 148.726C97.5679 148.895 97.4263 149.097 97.3278 149.321C97.2294 149.545 97.176 149.786 97.1708 150.03C97.1656 150.275 97.2087 150.518 97.2976 150.746C97.416 150.951 97.5864 151.122 97.7918 151.241C97.9972 151.36 98.2303 151.422 98.4676 151.422C98.7049 151.422 98.9379 151.36 99.1433 151.241C99.3487 151.122 99.5192 150.951 99.6376 150.746L99.5676 151.116Z" fill="white"/>
<path d="M106.797 148.316C106.667 148.056 106.217 148.216 106.167 148.496C106.163 148.64 106.189 148.783 106.242 148.918C106.295 149.052 106.375 149.174 106.477 149.276C106.649 149.176 106.787 149.028 106.875 148.85C106.962 148.672 106.994 148.472 106.967 148.276L106.797 148.316Z" fill="white"/>
<path d="M105.958 137.866L105.688 137.756C105.627 137.808 105.588 137.879 105.575 137.958C105.562 138.037 105.577 138.117 105.618 138.186C105.639 138.218 105.666 138.247 105.699 138.268C105.731 138.29 105.767 138.305 105.806 138.313C105.844 138.32 105.883 138.32 105.921 138.312C105.96 138.304 105.996 138.288 106.028 138.266C106.059 138.242 106.084 138.212 106.101 138.177C106.119 138.143 106.128 138.104 106.128 138.066C106.128 138.027 106.119 137.989 106.101 137.954C106.084 137.919 106.059 137.889 106.028 137.866H105.958Z" fill="white"/>
<path d="M103.157 142.316C102.357 141.634 101.408 141.148 100.387 140.896C100.222 140.861 100.052 140.861 99.8873 140.896C99.7312 140.941 99.5886 141.024 99.4718 141.138C99.3551 141.251 99.2677 141.391 99.2173 141.546C99.0868 141.925 99.0732 142.334 99.1785 142.721C99.2837 143.108 99.5028 143.455 99.8073 143.716C100.116 143.971 100.482 144.148 100.874 144.23C101.266 144.312 101.672 144.296 102.057 144.186C102.272 144.139 102.475 144.051 102.655 143.926C102.836 143.801 102.989 143.641 103.107 143.456C103.221 143.268 103.266 143.046 103.233 142.828C103.2 142.611 103.092 142.412 102.927 142.266C102.894 142.275 102.864 142.293 102.84 142.317C102.816 142.342 102.798 142.372 102.789 142.405C102.78 142.438 102.78 142.473 102.788 142.507C102.797 142.54 102.814 142.571 102.837 142.596L103.157 142.316Z" fill="white"/>
<path d="M91.2973 154.856C91.1721 154.367 90.9218 153.919 90.5712 153.556C90.2205 153.193 89.7816 152.928 89.2973 152.786C88.9321 153.116 88.6509 153.529 88.477 153.99C88.3031 154.451 88.2415 154.946 88.2973 155.436C88.376 155.923 88.6441 156.359 89.0431 156.649C89.442 156.94 89.9396 157.061 90.4273 156.986C91.4273 156.736 91.7573 155.216 90.9173 154.706L91.2973 154.856Z" fill="white"/>
<path d="M85.2877 137.186C85.2276 136.961 85.1158 136.754 84.9613 136.58C84.8068 136.406 84.6137 136.271 84.3977 136.186C84.2958 136.368 84.2312 136.568 84.2077 136.776C84.1976 136.877 84.2168 136.978 84.2629 137.069C84.309 137.159 84.3801 137.234 84.4677 137.286C84.7277 137.406 85.0177 137.216 85.2377 137.046V137.276L85.2877 137.186Z" fill="white"/>
<path d="M81.9676 137.316C81.8912 137.215 81.7869 137.138 81.6676 137.096C81.5414 137.089 81.4161 137.121 81.3076 137.186C80.9842 137.326 80.6497 137.44 80.3076 137.526L81.8276 138.266C81.8732 138.283 81.9142 138.31 81.9476 138.346C82.0476 138.456 81.9476 138.646 81.9476 138.796C81.9476 138.946 82.2576 139.126 82.4776 139.136C84.1776 139.196 82.4376 137.796 81.9676 137.316Z" fill="white"/>
<path d="M101.947 139.486L101.507 139.246C101.429 139.392 101.399 139.56 101.42 139.725C101.442 139.89 101.514 140.044 101.627 140.166C101.877 140.376 102.367 140.256 102.397 139.926C102.427 139.596 102.397 139.396 102.567 139.416L101.947 139.486Z" fill="white"/>
<path d="M87.9074 142.106C88.0397 142.155 88.1569 142.237 88.2474 142.346C88.0809 142.399 87.9045 142.414 87.7314 142.39C87.5582 142.366 87.3927 142.303 87.2474 142.206C87.0774 142.116 86.8774 141.976 86.8974 141.776C86.9174 141.576 87.0274 141.536 87.0874 141.406C87.1474 141.276 87.1474 140.766 87.4174 140.676C87.4941 140.66 87.5737 140.672 87.643 140.708C87.7122 140.745 87.7667 140.804 87.7974 140.876C87.8566 141.021 87.8805 141.179 87.8674 141.336V142.336L87.9074 142.106Z" fill="white"/>
<path d="M86.0577 147.206C85.9377 146.946 85.4877 147.106 85.4377 147.386C85.3892 147.483 85.37 147.593 85.3827 147.701C85.3954 147.809 85.4393 147.911 85.5091 147.994C85.5789 148.078 85.6715 148.139 85.7757 148.171C85.8798 148.203 85.9909 148.204 86.0955 148.173C86.2 148.143 86.2934 148.082 86.3642 148C86.435 147.917 86.4802 147.816 86.4942 147.708C86.5083 147.6 86.4905 147.49 86.4432 147.392C86.3959 147.294 86.321 147.212 86.2277 147.156L86.0577 147.206Z" fill="white"/>
<path opacity="0.5" d="M82.1873 142.406C82.1995 142.473 82.1856 142.543 82.1485 142.6C82.1113 142.658 82.0537 142.699 81.9873 142.716C81.8537 142.736 81.7174 142.704 81.6073 142.626C81.5365 142.585 81.4779 142.526 81.4373 142.456C81.4192 142.414 81.4095 142.37 81.4087 142.325C81.408 142.28 81.4163 142.235 81.433 142.193C81.4498 142.151 81.4747 142.113 81.5063 142.081C81.5379 142.049 81.5757 142.023 81.6173 142.006C81.6606 141.99 81.7066 141.982 81.7527 141.984C81.7989 141.986 81.8441 141.997 81.886 142.017C81.9278 142.036 81.9653 142.064 81.9964 142.098C82.0276 142.132 82.0516 142.172 82.0673 142.216C82.0976 142.303 82.0962 142.397 82.0632 142.484C82.0303 142.57 81.9679 142.641 81.8873 142.686L82.1873 142.406Z" fill="white"/>
<path d="M83.4376 141.076C83.4913 141.032 83.5328 140.975 83.5579 140.91C83.583 140.846 83.5909 140.776 83.5808 140.707C83.5707 140.639 83.543 140.574 83.5003 140.519C83.4577 140.465 83.4016 140.422 83.3376 140.396C83.2133 140.477 83.1186 140.596 83.0675 140.736C83.0456 140.809 83.0473 140.887 83.0725 140.958C83.0976 141.03 83.1449 141.092 83.2075 141.136C83.2406 141.152 83.2771 141.16 83.3139 141.159C83.3508 141.158 83.3869 141.149 83.4192 141.131C83.4515 141.114 83.4792 141.088 83.4998 141.058C83.5204 141.027 83.5333 140.992 83.5375 140.956L83.4376 141.076Z" fill="white"/>
<path d="M88.3476 136.856C88.3567 136.683 88.3263 136.51 88.2588 136.351C88.1912 136.191 88.0882 136.049 87.9576 135.936L87.4576 136.626C87.3753 136.732 87.3173 136.855 87.2876 136.986C87.2882 137.05 87.3028 137.114 87.3303 137.173C87.3578 137.231 87.3976 137.283 87.4469 137.325C87.4962 137.366 87.554 137.397 87.6162 137.414C87.6785 137.432 87.7438 137.436 87.8076 137.426C87.9362 137.401 88.0539 137.337 88.1437 137.242C88.2335 137.147 88.2909 137.025 88.3076 136.896L88.3476 136.856Z" fill="white"/>
<path opacity="0.5" d="M82.5575 146.436C82.5808 146.534 82.5762 146.636 82.5444 146.731C82.5126 146.827 82.4548 146.911 82.3775 146.976C82.2988 147.037 82.2041 147.074 82.1049 147.083C82.0056 147.092 81.9058 147.072 81.8175 147.026C81.6975 146.966 81.5975 146.796 81.6875 146.696C81.7231 146.651 81.7723 146.62 81.8275 146.606L82.5375 146.336V146.466L82.5575 146.436Z" fill="white"/>
<path opacity="0.5" d="M79.5973 149.046C79.3473 149.046 79.2173 149.346 79.1473 149.586C79.0773 149.826 78.9973 150.106 78.7573 150.186C78.7262 150.201 78.692 150.208 78.6573 150.208C78.6227 150.208 78.5885 150.201 78.5573 150.186C78.4173 150.076 78.5573 149.866 78.5573 149.686C78.5721 149.546 78.5721 149.405 78.5573 149.266C78.5553 149.098 78.6051 148.934 78.7001 148.796C78.795 148.659 78.9303 148.553 79.0873 148.496C79.176 148.506 79.2598 148.542 79.3289 148.599C79.398 148.656 79.4495 148.731 79.4773 148.816C79.5016 148.902 79.5004 148.993 79.4737 149.078C79.4471 149.163 79.3962 149.239 79.3273 149.296L79.5973 149.046Z" fill="white"/>
<path opacity="0.5" d="M96.0573 133.436C95.8073 133.436 95.6773 133.726 95.6073 133.966C95.5373 134.206 95.4473 134.496 95.2173 134.566C95.1861 134.581 95.1519 134.588 95.1173 134.588C95.0827 134.588 95.0485 134.581 95.0173 134.566C94.8773 134.456 95.0173 134.246 95.0173 134.076C95.032 133.936 95.032 133.795 95.0173 133.656C95.0153 133.488 95.0638 133.324 95.1566 133.185C95.2494 133.046 95.3821 132.938 95.5373 132.876C95.6264 132.885 95.7108 132.921 95.7801 132.977C95.8494 133.034 95.9005 133.11 95.9273 133.196C95.9548 133.282 95.9563 133.375 95.9313 133.462C95.9064 133.549 95.8563 133.627 95.7873 133.686L96.0573 133.436Z" fill="white"/>
<path opacity="0.5" d="M77.9775 147.146L77.7675 146.956C77.6941 146.986 77.6327 147.04 77.5929 147.108C77.5531 147.177 77.5371 147.257 77.5475 147.336C77.5568 147.373 77.5736 147.409 77.5969 147.44C77.6201 147.471 77.6494 147.497 77.683 147.517C77.7166 147.537 77.7538 147.549 77.7924 147.554C77.8309 147.559 77.8701 147.556 77.9075 147.546C77.943 147.532 77.9749 147.51 78.0006 147.481C78.0263 147.453 78.0452 147.419 78.0558 147.383C78.0664 147.346 78.0685 147.307 78.0619 147.27C78.0552 147.232 78.0401 147.197 78.0175 147.166L77.9775 147.146Z" fill="white"/>
<path d="M84.7476 139.446C84.8076 139.626 85.0776 139.616 85.2176 139.446C85.3576 139.276 85.4176 139.136 85.5476 138.996C85.613 138.923 85.6935 138.866 85.7833 138.828C85.8731 138.79 85.9701 138.772 86.0676 138.776C86.1226 138.771 86.1779 138.782 86.2273 138.806C86.2767 138.831 86.3183 138.869 86.3476 138.916C86.3675 138.991 86.3675 139.07 86.3476 139.146C86.3196 139.502 86.2027 139.846 86.0076 140.146C85.8952 140.299 85.7415 140.417 85.5644 140.486C85.3872 140.555 85.1941 140.572 85.0076 140.536C84.8838 140.499 84.7715 140.431 84.6821 140.338C84.5926 140.246 84.529 140.131 84.4976 140.006C84.471 139.879 84.4763 139.748 84.513 139.624C84.5496 139.5 84.6165 139.387 84.7076 139.296L84.7476 139.446Z" fill="white"/>
<path d="M84.5376 134.446C84.525 134.329 84.4683 134.222 84.3791 134.145C84.2898 134.069 84.1749 134.03 84.0576 134.036C83.9415 134.049 83.831 134.093 83.7377 134.163C83.6444 134.233 83.5719 134.328 83.5276 134.436C83.5276 134.526 83.4676 134.666 83.5276 134.716C83.592 134.74 83.6632 134.74 83.7276 134.716L84.5676 134.496L84.5376 134.446Z" fill="white"/>
<path d="M89.9777 146.156C89.9579 146.271 89.9118 146.38 89.843 146.474C89.7743 146.569 89.6846 146.646 89.5811 146.7C89.4776 146.754 89.363 146.784 89.2462 146.787C89.1294 146.789 89.0136 146.765 88.9077 146.716C88.9572 146.344 89.1175 145.995 89.3677 145.716C89.4297 145.644 89.5064 145.586 89.5927 145.546C89.679 145.507 89.7728 145.486 89.8677 145.486C89.9626 145.486 90.0564 145.507 90.1427 145.546C90.229 145.586 90.3057 145.644 90.3677 145.716L90.2677 146.356L89.9777 146.156Z" fill="white"/>
<path opacity="0.5" d="M80.9373 140.246L80.7073 140.056C80.5846 140.15 80.4996 140.284 80.4673 140.436C80.4673 140.596 80.6373 140.756 80.7573 140.666C80.8045 140.631 80.8395 140.582 80.8573 140.526L81.0773 140.016L80.9373 140.246Z" fill="white"/>
<path d="M107.058 144.496C106.96 144.269 106.813 144.068 106.628 143.906C106.536 143.824 106.423 143.772 106.301 143.756C106.18 143.74 106.057 143.761 105.948 143.816C105.843 143.88 105.765 143.979 105.728 144.096C105.695 144.183 105.681 144.276 105.686 144.368C105.691 144.461 105.715 144.552 105.756 144.635C105.798 144.718 105.856 144.792 105.927 144.852C105.998 144.912 106.081 144.957 106.17 144.983C106.259 145.01 106.352 145.018 106.445 145.007C106.537 144.997 106.626 144.967 106.706 144.92C106.787 144.874 106.857 144.811 106.912 144.736C106.967 144.661 107.007 144.576 107.028 144.486L107.058 144.496Z" fill="white"/>
<path d="M94.2176 151.476L93.7776 151.246C93.6873 151.336 93.6188 151.445 93.5776 151.566C93.6656 151.652 93.7841 151.701 93.9076 151.701C94.0311 151.701 94.1497 151.652 94.2376 151.566L94.2176 151.476Z" fill="white"/>
<path d="M118.777 149.986C118.785 150.018 118.786 150.051 118.78 150.084C118.774 150.116 118.762 150.147 118.745 150.175C118.727 150.203 118.704 150.227 118.677 150.246C118.65 150.265 118.62 150.279 118.587 150.286C118.52 150.3 118.451 150.3 118.384 150.286C118.317 150.272 118.253 150.245 118.197 150.206C118.132 150.162 118.077 150.104 118.037 150.036C118.018 149.994 118.007 149.948 118.005 149.902C118.004 149.856 118.011 149.81 118.028 149.767C118.045 149.724 118.071 149.685 118.103 149.652C118.136 149.619 118.174 149.593 118.217 149.576C118.262 149.559 118.31 149.55 118.357 149.552C118.405 149.553 118.452 149.564 118.496 149.583C118.539 149.603 118.579 149.631 118.612 149.665C118.645 149.7 118.67 149.741 118.687 149.786C118.704 149.83 118.712 149.878 118.711 149.926C118.71 149.973 118.699 150.02 118.68 150.064C118.66 150.108 118.632 150.147 118.598 150.18C118.563 150.213 118.522 150.239 118.477 150.256L118.777 149.986Z" fill="white"/>
<path d="M92.4877 147.716L92.0377 147.486C91.9536 147.579 91.889 147.687 91.8477 147.806C91.9368 147.89 92.0549 147.937 92.1777 147.937C92.3004 147.937 92.4185 147.89 92.5077 147.806L92.4877 147.716Z" fill="white"/>
<path d="M98.6077 135.446C98.6077 135.256 98.3377 135.186 98.1677 135.266C98.0144 135.37 97.8675 135.484 97.7277 135.606C97.644 135.655 97.5503 135.686 97.4533 135.694C97.3564 135.703 97.2588 135.69 97.1677 135.656C97.1125 135.644 97.0617 135.618 97.0211 135.579C96.9804 135.54 96.9515 135.49 96.9377 135.436C96.914 135.364 96.914 135.287 96.9377 135.216C97.0612 134.866 97.2793 134.558 97.5676 134.326C97.7088 134.218 97.8776 134.152 98.0546 134.136C98.2316 134.12 98.4095 134.155 98.5676 134.236C98.6763 134.306 98.7642 134.405 98.8222 134.521C98.8802 134.637 98.9062 134.766 98.8976 134.896C98.8865 135.024 98.843 135.147 98.7713 135.254C98.6996 135.36 98.602 135.447 98.4876 135.506L98.6077 135.446Z" fill="white"/>
<path d="M102.348 144.686C102.392 144.819 102.463 144.942 102.558 145.046C102.604 145.098 102.665 145.136 102.732 145.154C102.8 145.172 102.872 145.169 102.938 145.146C103.158 145.046 103.138 144.736 103.278 144.546C103.418 144.356 103.718 144.306 103.788 144.086C103.858 143.866 103.628 143.646 103.398 143.636C103.167 143.648 102.948 143.74 102.778 143.896C102.6 144.004 102.46 144.164 102.378 144.356C102.334 144.449 102.325 144.554 102.353 144.653C102.38 144.752 102.442 144.838 102.528 144.896L102.348 144.686Z" fill="white"/>
<path d="M92.8474 139.556C93.6388 139.881 94.4938 140.021 95.3474 139.966C95.4859 139.967 95.6228 139.936 95.7474 139.876C95.859 139.803 95.9504 139.704 96.0134 139.587C96.0763 139.47 96.1086 139.339 96.1074 139.206C96.1148 138.878 96.0233 138.556 95.8449 138.281C95.6665 138.007 95.4095 137.792 95.1074 137.666C94.804 137.542 94.4748 137.494 94.1487 137.527C93.8226 137.56 93.5097 137.673 93.2374 137.856C93.0827 137.945 92.9473 138.065 92.8391 138.207C92.731 138.35 92.6522 138.513 92.6074 138.686C92.5678 138.859 92.5888 139.041 92.6671 139.202C92.7453 139.362 92.876 139.49 93.0374 139.566C93.0601 139.55 93.0787 139.529 93.0915 139.505C93.1043 139.48 93.111 139.453 93.111 139.426C93.111 139.398 93.1043 139.371 93.0915 139.347C93.0787 139.322 93.0601 139.301 93.0374 139.286L92.8474 139.556Z" fill="white"/>
<path d="M96.8977 134.876C96.9375 134.752 96.9375 134.619 96.8977 134.496C96.8409 134.384 96.7499 134.292 96.6377 134.236C96.3651 134.031 96.1077 133.807 95.8677 133.566L95.9877 135.256C95.9931 135.302 95.9931 135.349 95.9877 135.396C95.9377 135.546 95.7277 135.546 95.5977 135.646C95.4677 135.746 95.4777 136.066 95.5977 136.276C96.3277 137.746 96.6777 135.546 96.8977 134.876Z" fill="white"/>
<path d="M92.8675 139.316L92.6675 139.106C92.592 139.129 92.5267 139.177 92.4829 139.243C92.4391 139.308 92.4195 139.387 92.4275 139.466C92.4336 139.504 92.4472 139.541 92.4677 139.574C92.4882 139.607 92.5151 139.635 92.5468 139.658C92.5785 139.68 92.6144 139.696 92.6523 139.704C92.6902 139.712 92.7294 139.713 92.7675 139.706C92.8047 139.694 92.8387 139.673 92.8665 139.646C92.8944 139.619 92.9156 139.585 92.9282 139.548C92.9408 139.512 92.9446 139.472 92.9393 139.433C92.934 139.395 92.9197 139.358 92.8975 139.326L92.8675 139.316Z" fill="white"/>
<path d="M94.1977 134.936C94.2466 134.904 94.2887 134.863 94.3215 134.815C94.3542 134.767 94.3768 134.713 94.3881 134.656C94.3993 134.599 94.3988 134.541 94.3867 134.484C94.3746 134.427 94.3511 134.373 94.3177 134.326C94.2502 134.23 94.1574 134.155 94.0496 134.109C93.9419 134.063 93.8235 134.048 93.7077 134.066C93.6077 134.066 93.4877 134.126 93.4777 134.226C93.4677 134.326 93.5277 134.356 93.5777 134.406L94.1777 135.026L94.1977 134.936Z" fill="white"/>
<path d="M92.6377 137.616C92.807 137.449 92.9335 137.243 93.0066 137.017C93.0797 136.791 93.0972 136.55 93.0577 136.316C92.8517 136.316 92.6478 136.357 92.4577 136.436C92.3632 136.477 92.2832 136.546 92.228 136.633C92.1728 136.721 92.1448 136.822 92.1477 136.926C92.1477 137.206 92.4777 137.356 92.7377 137.466L92.5177 137.556L92.6377 137.616Z" fill="white"/>
<path d="M90.8472 138.666C90.887 138.799 90.887 138.942 90.8472 139.076C90.709 138.951 90.6024 138.796 90.5363 138.622C90.4702 138.448 90.4465 138.261 90.4672 138.076C90.4672 137.876 90.4672 137.626 90.6672 137.546C90.8672 137.466 90.9372 137.546 91.0772 137.546C91.2172 137.546 91.6672 137.286 91.8672 137.466C91.9168 137.526 91.9439 137.602 91.9439 137.681C91.9439 137.759 91.9168 137.835 91.8672 137.896C91.7687 138.02 91.6419 138.12 91.4972 138.186L90.6072 138.696L90.8472 138.666Z" fill="white"/>
<path d="M95.6276 136.436C95.7808 136.353 95.9139 136.237 96.0176 136.097C96.1213 135.957 96.1929 135.796 96.2276 135.626L95.3776 135.546C95.2459 135.516 95.1093 135.516 94.9776 135.546C94.9233 135.58 94.8767 135.625 94.8409 135.678C94.8051 135.731 94.7807 135.791 94.7694 135.854C94.7581 135.917 94.7601 135.982 94.7753 136.044C94.7905 136.106 94.8185 136.165 94.8576 136.216C94.9436 136.314 95.0582 136.384 95.1854 136.414C95.3127 136.444 95.4462 136.435 95.5676 136.386L95.6276 136.436Z" fill="white"/>
<path d="M91.5874 134.596C91.4574 134.736 91.5874 134.966 91.7774 135.026C91.9628 135.056 92.1497 135.076 92.3374 135.086C92.4319 135.108 92.5207 135.15 92.5982 135.208C92.6756 135.267 92.7401 135.341 92.7874 135.426C92.8145 135.475 92.8288 135.53 92.8288 135.586C92.8288 135.642 92.8145 135.697 92.7874 135.746C92.7409 135.805 92.6785 135.85 92.6074 135.876C92.2775 136.046 91.9082 136.125 91.5374 136.106C91.354 136.084 91.1803 136.011 91.0356 135.896C90.8909 135.782 90.7807 135.629 90.7174 135.456C90.6864 135.33 90.6896 135.198 90.7265 135.073C90.7635 134.949 90.8329 134.837 90.9276 134.748C91.0223 134.66 91.1389 134.598 91.2654 134.569C91.3919 134.541 91.5238 134.546 91.6474 134.586L91.5874 134.596Z" fill="white"/>
<path d="M97.5274 145.156C97.6711 144.958 97.7732 144.734 97.8274 144.496C97.8538 144.375 97.8431 144.25 97.7967 144.135C97.7503 144.021 97.6703 143.924 97.5674 143.856C97.4572 143.797 97.3307 143.776 97.2074 143.796C97.0277 143.839 96.871 143.948 96.7689 144.102C96.6669 144.256 96.627 144.443 96.6574 144.626C96.7089 144.804 96.827 144.955 96.9872 145.048C97.1473 145.141 97.3373 145.169 97.5174 145.126L97.5274 145.156Z" fill="white"/>
<path d="M101.057 140.956C101.218 140.789 101.338 140.588 101.409 140.368C101.48 140.148 101.5 139.915 101.467 139.686C101.262 139.689 101.058 139.73 100.867 139.806C100.773 139.848 100.692 139.917 100.635 140.004C100.578 140.09 100.548 140.192 100.547 140.296C100.547 140.576 100.877 140.736 101.137 140.836L100.927 140.936L101.057 140.956Z" fill="white"/>
<path d="M89.9775 138.746C89.7275 138.746 89.5675 139.016 89.4875 139.246C89.4075 139.476 89.2975 139.756 89.0575 139.816C89.0271 139.833 88.9926 139.842 88.9575 139.842C88.9224 139.842 88.8879 139.833 88.8575 139.816C88.7275 139.706 88.8575 139.496 88.9175 139.326C88.9327 139.189 88.9327 139.052 88.9175 138.916C88.9253 138.748 88.984 138.586 89.0858 138.452C89.1876 138.318 89.3277 138.218 89.4875 138.166C89.5754 138.184 89.6563 138.227 89.7216 138.289C89.7868 138.351 89.8339 138.429 89.8575 138.516C89.8772 138.604 89.8707 138.697 89.8387 138.782C89.8068 138.868 89.7508 138.942 89.6775 138.996L89.9775 138.746Z" fill="white"/>
<path d="M104.798 150.976H104.518C104.47 151.037 104.444 151.113 104.444 151.191C104.444 151.269 104.47 151.344 104.518 151.406C104.545 151.434 104.577 151.457 104.613 151.472C104.65 151.488 104.688 151.496 104.728 151.496C104.767 151.496 104.806 151.488 104.842 151.472C104.878 151.457 104.911 151.434 104.938 151.406C104.96 151.374 104.975 151.338 104.981 151.3C104.987 151.262 104.984 151.223 104.972 151.186C104.96 151.149 104.94 151.115 104.914 151.088C104.887 151.06 104.854 151.039 104.818 151.026L104.798 150.976Z" fill="white"/>
<path d="M96.2277 138.696L96.2777 138.406C96.1302 138.346 95.9651 138.346 95.8177 138.406C95.6877 138.476 95.6377 138.706 95.8177 138.776C95.8726 138.795 95.9328 138.795 95.9877 138.776L96.5377 138.716L96.2277 138.696Z" fill="white"/>
<path style="mix-blend-mode:multiply" opacity="0.5" d="M94.0373 204.026C116.559 204.026 134.817 199.96 134.817 194.946C134.817 189.931 116.559 185.866 94.0373 185.866C71.5152 185.866 53.2573 189.931 53.2573 194.946C53.2573 199.96 71.5152 204.026 94.0373 204.026Z" fill="url(#paint0_radial_203_238)"/>
<path d="M86.0574 159.696C84.8674 166.636 79.5874 182.696 74.8574 180.986C73.8574 180.616 72.7674 179.326 71.6974 177.416C68.4674 171.636 65.2874 160.246 63.6974 152.546C62.8374 148.356 62.4474 145.246 62.7974 144.746C64.9074 141.616 84.9474 155.166 86.1374 156.666C86.3574 156.956 86.3074 158.076 86.0574 159.696Z" fill="url(#paint1_linear_203_238)"/>
<path d="M117.758 150.316C117.688 150.956 117.598 151.626 117.508 152.316C116.088 162.856 113.158 178.316 110.018 183.976C109.268 185.326 108.498 186.106 107.738 186.126C107.531 186.129 107.325 186.099 107.128 186.036C106.253 185.694 105.484 185.129 104.898 184.396C100.128 179.036 94.7377 162.766 94.5477 157.906C94.4901 157.484 94.5525 157.054 94.7276 156.666C97.4476 152.976 117.158 140.376 118.258 141.876C118.548 142.316 118.328 145.636 117.758 150.316Z" fill="url(#paint2_linear_203_238)"/>
<path d="M62.7876 144.746C60.5676 147.646 78.6476 160.746 86.2676 157.336C86.2676 157.316 65.7276 140.896 62.7876 144.746Z" fill="url(#paint3_linear_203_238)"/>
<path d="M94.5474 157.906C93.9474 159.376 114.817 155.996 118.257 141.906C118.257 141.876 100.207 143.986 94.5474 157.906Z" fill="url(#paint4_linear_203_238)"/>
<path style="mix-blend-mode:multiply" opacity="0.3" d="M70.6876 156.926C69.6876 158.176 70.9276 174.416 74.8276 180.986C73.8276 180.616 72.7376 179.326 71.6676 177.416C71.0376 174.576 70.0976 170.356 69.2076 166.146C68.0247 161.373 66.1659 156.793 63.6876 152.546C62.8276 148.356 62.4376 145.246 62.7876 144.746C64.8976 141.616 84.9377 155.166 86.1277 156.666C86.3577 156.956 86.3076 158.076 86.0276 159.666C86.0576 159.696 71.7076 155.686 70.6876 156.926Z" fill="url(#paint5_linear_203_238)"/>
<path d="M105.998 162.816C105.148 163.076 104.948 169.876 106.368 170.256C107.788 170.636 107.968 162.216 105.998 162.816Z" fill="white"/>
<path style="mix-blend-mode:multiply" opacity="0.3" d="M117.757 150.316C117.757 150.316 106.347 153.696 103.757 159.106C101.167 164.516 102.107 177.376 104.947 184.386C100.177 179.026 94.7875 162.756 94.5975 157.896C94.5399 157.474 94.6023 157.044 94.7775 156.656C97.4975 152.966 117.207 140.366 118.307 141.866C118.547 142.316 118.327 145.636 117.757 150.316Z" fill="url(#paint6_linear_203_238)"/>
<path d="M68.4276 97.1056C68.4276 103.106 67.5576 111.846 64.8176 118.886C60.2976 130.536 53.4976 145.216 53.2876 145.676C49.1376 148.206 44.1676 148.066 40.9976 147.606C39.9255 147.458 38.8659 147.231 37.8276 146.926C39.2351 137.034 42.1843 127.424 46.5676 118.446C50.0349 111.414 54.2026 104.75 59.0076 98.5556V98.4856C59.0076 98.4156 59.1076 98.3556 59.1576 98.2856C59.1875 98.2514 59.2143 98.2146 59.2376 98.1756C59.2698 98.1509 59.2969 98.1204 59.3176 98.0856C59.3519 98.0371 59.3886 97.9903 59.4276 97.9456C63.5376 92.7256 66.8776 89.5656 67.5776 89.9456C68.0576 90.1556 68.4376 93.0056 68.4276 97.1056Z" fill="url(#paint7_linear_203_238)"/>
<path d="M37.8774 146.416C37.8774 146.416 43.2274 137.586 48.7474 138.736C54.2674 139.886 53.2774 145.736 53.2774 145.736C51.0023 147.207 48.3764 148.045 45.6697 148.165C42.963 148.284 40.2734 147.68 37.8774 146.416Z" fill="url(#paint8_linear_203_238)"/>
<path style="mix-blend-mode:multiply" opacity="0.3" d="M68.4274 97.1057C68.4274 103.106 67.5574 111.846 64.8174 118.886C60.2974 130.536 53.4974 145.216 53.2874 145.676L40.9874 147.616C39.9153 147.468 38.8557 147.241 37.8174 146.936C39.2249 137.044 42.174 127.434 46.5574 118.456C50.0246 111.424 54.1924 104.76 58.9974 98.5657C56.6774 101.626 46.9974 114.946 44.3774 126.256C41.3774 139.116 53.3774 134.166 58.2774 126.256C63.1774 118.346 68.2774 97.1057 68.2774 97.1057H68.4274Z" fill="url(#paint9_linear_203_238)"/>
<path d="M55.0575 117.676C54.0575 117.306 59.1175 105.906 60.6775 105.796C62.2375 105.686 55.8775 117.986 55.0575 117.676Z" fill="white"/>
<path d="M54.5376 118.886C53.7676 118.476 53.0476 120.616 53.7476 120.886C54.4476 121.156 55.4076 119.316 54.5376 118.886Z" fill="white"/>
<path d="M46.9675 141.396C44.1075 140.926 39.9675 143.596 38.6675 145.996C37.3675 148.396 36.6675 162.226 39.9575 173.646C39.9575 173.646 44.5675 174.896 48.0175 173.646C51.4675 172.396 53.8775 162.316 54.0575 154.736C54.2375 147.156 51.6675 142.156 46.9675 141.396Z" fill="url(#paint10_linear_203_238)"/>
<path d="M46.5375 174.026C46.5375 174.026 42.3275 149.696 51.8975 144.736C51.8975 144.736 54.7375 149.556 53.6875 158.956C52.6375 168.356 51.0575 173.166 46.5375 174.026Z" fill="url(#paint11_linear_203_238)"/>
<path style="mix-blend-mode:multiply" opacity="0.5" d="M45.8477 160.526C45.8477 160.526 48.3077 164.116 49.9877 164.706C50.9537 165.074 52.0216 165.074 52.9877 164.706L46.7877 153.706C46.1966 155.932 45.8809 158.222 45.8477 160.526Z" fill="url(#paint12_linear_203_238)"/>
<path d="M46.7773 153.636C46.7773 153.636 48.1373 146.896 52.2073 145.246C52.2073 145.246 55.9873 148.976 55.0273 163.466C55.0273 163.466 52.9173 166.256 49.9373 163.466C48.4226 160.356 47.3586 157.046 46.7773 153.636Z" fill="url(#paint13_linear_203_238)"/>
<path d="M49.0576 151.256C47.6776 151.256 49.7776 157.376 50.4976 157.256C51.2176 157.136 50.2576 151.256 49.0576 151.256Z" fill="white"/>
<path d="M112.149 97.1056C112.149 103.106 113.019 111.846 115.759 118.886C120.279 130.536 127.079 145.216 127.289 145.676C131.439 148.206 136.409 148.066 139.579 147.606C140.651 147.458 141.71 147.231 142.749 146.926C141.341 137.034 138.392 127.424 134.009 118.446C130.541 111.414 126.374 104.75 121.569 98.5556V98.4856C121.569 98.4156 121.469 98.3556 121.419 98.2856C121.389 98.2514 121.362 98.2146 121.339 98.1756C121.306 98.1509 121.279 98.1204 121.259 98.0856C121.224 98.0371 121.188 97.9903 121.149 97.9456V97.9456C117.039 92.7256 113.699 89.5656 112.999 89.9456C112.519 90.1556 112.139 93.0056 112.149 97.1056Z" fill="url(#paint14_linear_203_238)"/>
<path d="M142.699 146.416C142.699 146.416 137.349 137.586 131.829 138.736C126.309 139.886 127.299 145.736 127.299 145.736C129.574 147.207 132.2 148.045 134.906 148.165C137.613 148.284 140.303 147.68 142.699 146.416V146.416Z" fill="url(#paint15_linear_203_238)"/>
<path style="mix-blend-mode:multiply" opacity="0.3" d="M112.149 97.1057C112.149 103.106 113.019 111.846 115.759 118.886C120.279 130.536 127.079 145.216 127.289 145.676L139.589 147.616C140.661 147.468 141.721 147.241 142.759 146.936C141.351 137.044 138.402 127.434 134.019 118.456C130.552 111.424 126.384 104.76 121.579 98.5657C123.899 101.626 133.579 114.946 136.199 126.256C139.199 139.116 127.199 134.166 122.299 126.256C117.399 118.346 112.299 97.1057 112.299 97.1057H112.149Z" fill="url(#paint16_linear_203_238)"/>
<path d="M125.519 117.676C126.519 117.306 121.459 105.906 119.899 105.796C118.339 105.686 124.699 117.986 125.519 117.676Z" fill="white"/>
<path d="M126.039 118.886C126.809 118.476 127.529 120.616 126.829 120.886C126.129 121.156 125.169 119.316 126.039 118.886Z" fill="white"/>
<path d="M133.609 141.396C136.469 140.926 140.609 143.596 141.909 145.996C143.209 148.396 143.909 162.226 140.619 173.646C140.619 173.646 136.009 174.896 132.559 173.646C129.109 172.396 126.699 162.316 126.519 154.736C126.339 147.156 128.909 142.156 133.609 141.396Z" fill="url(#paint17_linear_203_238)"/>
<path d="M134.039 174.026C134.039 174.026 138.249 149.696 128.679 144.736C128.679 144.736 125.839 149.556 126.889 158.956C127.939 168.356 129.519 173.166 134.039 174.026Z" fill="url(#paint18_linear_203_238)"/>
<path style="mix-blend-mode:multiply" opacity="0.5" d="M134.729 160.526C134.729 160.526 132.269 164.116 130.589 164.706C129.622 165.074 128.555 165.074 127.589 164.706L133.789 153.706C134.38 155.932 134.695 158.222 134.729 160.526Z" fill="url(#paint19_linear_203_238)"/>
<path d="M133.799 153.636C133.799 153.636 132.439 146.896 128.369 145.246C128.369 145.246 124.589 148.976 125.549 163.466C125.549 163.466 127.659 166.256 130.639 163.466C132.154 160.356 133.218 157.046 133.799 153.636V153.636Z" fill="url(#paint20_linear_203_238)"/>
<path d="M131.519 151.256C132.899 151.256 130.799 157.376 130.079 157.256C129.359 157.136 130.319 151.256 131.519 151.256Z" fill="white"/>
<path d="M64.8174 11.4357C64.8174 11.4357 58.5674 6.04571 50.9074 5.10571C50.9074 5.10571 48.5674 6.25571 45.9074 14.6857C43.2474 23.1157 48.1974 39.7857 48.1974 39.7857L64.8174 11.4357Z" fill="url(#paint21_linear_203_238)"/>
<path d="M47.9473 9.31571C48.6432 7.71881 49.6651 6.28487 50.9473 5.10571C50.9473 5.10571 57.2473 10.9157 56.9973 24.8057L55.1873 26.6857L47.9473 9.31571Z" fill="url(#paint22_linear_203_238)"/>
<path d="M116.578 11.4357C116.578 11.4357 122.838 6.04571 130.488 5.10571C130.488 5.10571 132.828 6.25571 135.488 14.6857C138.148 23.1157 133.198 39.7857 133.198 39.7857L116.578 11.4357Z" fill="url(#paint23_linear_203_238)"/>
<path d="M130.488 5.10564C126.461 9.98444 124.271 16.1198 124.298 22.4456L126.688 23.9556L133.688 9.51564C133.688 9.51564 131.348 4.97564 130.488 5.10564Z" fill="url(#paint24_linear_203_238)"/>
<path d="M126.457 23.2256C126.457 23.2256 124.817 14.0856 130.827 7.37561C130.827 7.37561 137.617 10.5756 140.437 22.4456C143.257 34.3156 135.927 41.4456 135.927 41.4456L126.457 23.2256Z" fill="url(#paint25_linear_203_238)"/>
<path d="M54.9375 23.2256C54.9375 23.2256 56.5875 14.0856 50.5675 7.37561C50.5675 7.37561 43.7775 10.5756 40.9675 22.4456C38.1575 34.3156 45.4775 41.4456 45.4775 41.4456L54.9375 23.2256Z" fill="url(#paint26_linear_203_238)"/>
<path d="M134.808 73.7357C120.858 93.3157 55.2577 91.8557 46.7177 76.0257C41.1477 65.6857 41.7177 50.1457 47.1177 35.8457C54.1177 17.0757 69.4077 0.425659 89.6177 0.425659C113.408 0.425659 131.688 24.1257 137.188 45.7657C139.978 56.7257 139.498 67.1557 134.808 73.7357Z" fill="url(#paint27_linear_203_238)"/>
<path d="M51.6176 55.5756C54.7376 68.9056 112.398 70.3556 126.558 58.2756C140.718 46.1956 120.328 3.31562 89.0576 5.16562C60.5176 6.87562 46.4976 33.7456 51.6176 55.5756Z" fill="#DFE3FB"/>
<path d="M51.3173 53.9657C54.4373 67.2857 112.097 68.7357 126.257 56.6657C140.417 44.5957 120.027 1.66571 88.7873 3.54571C60.2173 5.25571 46.1973 32.1257 51.3173 53.9657Z" fill="url(#paint28_linear_203_238)"/>
<path style="mix-blend-mode:multiply" opacity="0.3" d="M134.808 73.7357C120.858 93.3157 55.2577 91.8557 46.7177 76.0257C41.1477 65.6857 41.7177 50.1457 47.1177 35.8457C46.8877 36.6857 41.3877 56.7357 47.0077 65.5557C52.7477 74.5557 75.4477 73.3257 99.8177 72.2857C124.188 71.2457 132.248 67.6957 136.338 60.8257C139.558 55.4157 136.338 43.4757 134.788 38.6457L137.178 45.7757C139.978 56.7257 139.498 67.1557 134.808 73.7357Z" fill="url(#paint29_linear_203_238)"/>
<path d="M89.6875 88.1457C76.0575 88.1457 66.2275 86.5957 60.7375 84.3857C57.1275 82.9457 55.3775 81.2257 55.6275 79.4557C55.7875 78.3757 58.4675 77.4557 62.6275 76.6457C75.0075 74.4057 100.627 73.7357 114.447 75.8257C115.637 76.0057 116.737 76.2057 117.737 76.4257L118.357 76.5757H118.467C120.857 77.1657 122.547 77.8857 123.297 78.7557C123.474 78.9505 123.604 79.1831 123.677 79.4357C125.057 83.8757 102.057 88.1457 89.6875 88.1457Z" fill="url(#paint30_linear_203_238)"/>
<path style="mix-blend-mode:multiply" opacity="0.5" d="M123.567 78.3656C123.508 78.5113 123.431 78.649 123.337 78.7756C121.997 80.6656 116.587 83.0956 116.587 83.0956C116.587 83.0956 95.7675 74.5756 78.8975 78.3656C62.0275 82.1556 60.7375 84.3656 60.7375 84.3656C57.1275 82.9256 55.3775 81.2056 55.6275 79.4356C55.7875 78.3556 58.4675 77.4356 62.6275 76.6256C75.0075 74.3856 100.627 73.7156 114.447 75.8056C115.887 76.0656 117.207 76.3156 118.357 76.5556H118.467C121.787 77.3156 123.717 77.9356 123.567 78.3656Z" fill="url(#paint31_linear_203_238)"/>
<path d="M117.777 76.4257C114.557 79.5057 99.0975 82.1757 90.2875 82.1657C74.4875 82.1657 64.8975 79.6457 62.6675 76.6457C76.1175 74.2157 105.197 73.6257 117.777 76.4257Z" fill="url(#paint32_linear_203_238)"/>
<path d="M116.788 138.186C114.888 149.436 104.788 156.926 90.3876 156.926C77.8176 156.926 67.1776 152.246 64.3876 141.926C61.5976 131.606 62.6676 112.556 66.3876 100.686C66.9284 98.9389 67.5969 97.2343 68.3876 95.5856C69.0818 94.1401 69.8736 92.7435 70.7576 91.4056C75.3376 84.5056 82.0476 79.9956 89.6376 79.9956C93.0554 79.9115 96.4489 80.5905 99.5713 81.983C102.694 83.3755 105.466 85.4466 107.688 88.0456C109.591 90.2917 111.105 92.8402 112.168 95.5856C113.434 98.8218 114.47 102.143 115.268 105.526C115.266 105.559 115.266 105.592 115.268 105.626C117.897 116.275 118.414 127.337 116.788 138.186Z" fill="url(#paint33_linear_203_238)"/>
<path style="mix-blend-mode:multiply" opacity="0.5" d="M46.7175 76.0256C49.0602 73.5773 51.8461 71.5955 54.9275 70.1856C60.3575 67.5856 65.3575 65.5456 66.1275 63.4556C66.8975 61.3656 51.2175 62.5956 51.2175 62.5956L43.4175 65.9856C43.4175 65.9856 44.6375 72.3156 46.7175 76.0256Z" fill="url(#paint34_linear_203_238)"/>
<path d="M101.177 32.3857C103.257 36.0557 117.057 32.7957 117.837 30.6157C118.837 27.7057 115.027 18.5357 107.737 19.3757C100.447 20.2157 100.167 30.6057 101.177 32.3857Z" fill="url(#paint35_linear_203_238)"/>
<path d="M79.6177 32.3857C77.5277 36.0557 63.7277 32.7957 62.9477 30.6157C61.9477 27.7057 65.7677 18.5357 73.0577 19.3757C80.3477 20.2157 80.6277 30.6057 79.6177 32.3857Z" fill="url(#paint36_linear_203_238)"/>
<path d="M75.7676 39.1556C75.7676 39.1556 79.7076 43.2156 90.8576 43.2156C102.008 43.2156 107.738 38.5356 107.738 38.5356C107.738 38.5356 102.818 45.1956 90.8576 45.1956C78.8976 45.1956 75.7676 39.1556 75.7676 39.1556Z" fill="#2F95CD"/>
<path d="M40.3275 26.6857C40.3275 26.6857 44.3276 29.2857 41.7176 35.3157C41.7176 35.3157 22.8175 45.6057 23.9075 56.8257C24.8275 66.1757 50.9075 61.6457 50.9075 61.6457L51.8375 64.7757C51.8375 64.7757 29.6875 69.1157 22.0575 63.8957C22.0575 63.8957 19.4575 57.7157 25.9075 46.5757C30.0749 39.5049 34.9032 32.8451 40.3275 26.6857Z" fill="url(#paint37_linear_203_238)"/>
<path d="M47.6273 60.7856C45.2473 63.4756 50.2973 66.4156 54.4473 66.8656C59.1073 67.3756 67.3773 65.5356 66.8773 60.8656C66.3773 56.1956 53.2073 54.4756 47.6273 60.7856Z" fill="url(#paint38_linear_203_238)"/>
<path style="mix-blend-mode:screen" opacity="0.5" d="M60.7777 20.2557C60.0577 24.5757 69.6577 24.3857 82.7777 23.9557C98.4977 23.4357 114.298 36.9557 123.488 27.2557C125.008 25.6557 109.958 4.63566 91.7777 5.10566C73.5977 5.57566 61.3977 16.5057 60.7777 20.2557Z" fill="url(#paint39_linear_203_238)"/>
<path style="mix-blend-mode:screen" opacity="0.5" d="M69.6873 57.8657C68.8573 60.9857 75.4073 64.1157 91.5073 63.3357C110.967 62.3357 115.097 58.3357 114.137 57.1757C113.567 56.4957 107.737 60.1757 91.7473 56.6657C81.1973 54.3157 70.5673 54.5657 69.6873 57.8657Z" fill="url(#paint40_linear_203_238)"/>
<path style="mix-blend-mode:multiply" opacity="0.3" d="M134.667 38.2257L134.197 36.8057C134.287 37.0757 134.467 37.5657 134.667 38.2257Z" fill="url(#paint41_linear_203_238)"/>
<path style="mix-blend-mode:multiply" opacity="0.3" d="M116.788 138.186C114.888 149.436 104.788 156.926 90.3876 156.926C77.8176 156.926 67.1776 152.246 64.3876 141.926C61.5976 131.606 62.6676 112.556 66.3876 100.686C66.9284 98.939 67.5969 97.2344 68.3876 95.5857C68.3876 95.5857 60.7876 120.786 66.8576 136.836C72.9276 152.886 101.248 152.546 110.858 141.886C119.978 131.736 115.768 107.886 115.338 105.616C117.945 116.273 118.438 127.339 116.788 138.186Z" fill="url(#paint42_linear_203_238)"/>
<path d="M64.9075 131.516C67.0575 116.426 79.1575 106.196 92.6075 107.516C107.098 108.886 114.888 122.716 114.678 134.586C114.468 146.456 105.798 155.726 90.2475 155.726C74.6975 155.726 62.8975 145.626 64.9075 131.516Z" fill="url(#paint43_linear_203_238)"/>
<path d="M65.0573 132.766C67.1973 117.676 79.3073 107.446 92.7473 108.766C107.247 110.136 115.037 123.966 114.827 135.836C114.617 147.706 105.947 156.976 90.3873 156.976C74.8273 156.976 63.0573 146.876 65.0573 132.766Z" fill="url(#paint44_radial_203_238)"/>
<path style="mix-blend-mode:multiply" opacity="0.5" d="M107.737 88.0257C104.667 92.8457 87.7374 95.6557 77.9574 94.7657C69.4374 93.9857 70.7274 91.6857 70.7974 91.3957C75.3774 84.4957 82.0874 79.9857 89.6774 79.9857C93.0961 79.8989 96.4911 80.5755 99.6153 81.9664C102.739 83.3572 105.514 85.4272 107.737 88.0257Z" fill="url(#paint45_linear_203_238)"/>
<path d="M101.717 96.3857C100.937 96.6457 100.897 102.986 101.717 104.016C102.537 105.046 103.867 104.716 104.307 103.226C104.747 101.736 102.907 95.9957 101.717 96.3857Z" fill="white"/>
<path d="M103.178 105.706C102.518 105.856 102.448 107.436 102.748 107.986C102.858 108.104 102.996 108.194 103.149 108.248C103.302 108.302 103.465 108.318 103.626 108.294C103.786 108.27 103.938 108.208 104.069 108.113C104.2 108.017 104.306 107.891 104.378 107.746C104.558 107.076 103.838 105.546 103.178 105.706Z" fill="white"/>
<path style="mix-blend-mode:screen" opacity="0.72" d="M73.5576 148.136C73.5576 148.136 77.0276 154.186 89.9676 154.236C102.908 154.286 108.158 146.576 108.158 146.576C105.965 147.785 103.554 148.545 101.064 148.813C98.575 149.081 96.0572 148.851 93.6576 148.136C85.1276 145.796 76.6876 144.486 73.5576 148.136Z" fill="url(#paint46_linear_203_238)"/>
<path d="M100.748 3.17567C99.3677 3.50567 110.968 9.63566 111.438 8.90566C111.908 8.17566 104.578 2.31567 100.748 3.17567Z" fill="white"/>
<path d="M122.967 7.7656C121.807 8.3856 121.907 9.63561 124.297 9.32561C126.687 9.01561 127.987 7.1356 127.727 6.7756C127.467 6.4156 124.267 7.0656 122.967 7.7656Z" fill="white"/>
<path d="M47.9477 61.3157C47.8077 62.0857 64.4277 62.3157 64.8177 59.3157C65.2077 56.3157 49.0577 55.3157 47.9477 61.3157Z" fill="url(#paint47_linear_203_238)"/>
<path style="mix-blend-mode:screen" opacity="0.2" d="M52.0575 49.5657C51.6558 46.0342 51.6994 42.4662 52.1875 38.9457C52.9775 32.8557 54.6175 28.9457 55.5875 29.4657C56.5575 29.9857 56.4175 35.9857 56.9875 41.8657C57.4375 46.4357 58.3175 50.7357 58.3175 50.7357C58.3175 50.7357 54.0575 54.7557 52.0575 49.5657Z" fill="url(#paint48_linear_203_238)"/>
<path style="mix-blend-mode:screen" opacity="0.72" d="M70.1874 123.186C72.7374 127.266 83.2474 125.096 95.0974 126.256C106.947 127.416 108.967 131.256 111.467 130.486C113.967 129.716 110.017 111.866 92.3174 110.656C74.6174 109.446 69.5474 122.176 70.1874 123.186Z" fill="url(#paint49_linear_203_238)"/>
<path style="mix-blend-mode:screen" opacity="0.72" d="M136.058 12.7456C136.058 12.7456 133.858 10.0156 130.858 10.7456C127.858 11.4756 127.648 20.9256 129.448 21.1656C131.248 21.4056 132.008 15.9256 133.388 15.0756C134.572 14.5455 135.883 14.3617 137.168 14.5456L136.058 12.7456Z" fill="url(#paint50_linear_203_238)"/>
<path style="mix-blend-mode:screen" opacity="0.72" d="M43.2173 16.0356C43.7226 15.5897 44.33 15.2752 44.9859 15.1199C45.6417 14.9647 46.3257 14.9735 46.9773 15.1456C49.5873 15.5656 51.0873 20.9156 52.4173 20.3756C53.7473 19.8356 52.7673 11.1856 49.2473 8.63562C49.2473 8.63562 44.7173 12.5156 43.2173 16.0356Z" fill="url(#paint51_linear_203_238)"/>
<path d="M39.6776 28.6356C39.6776 28.6356 30.4776 38.9756 31.0576 39.7156C31.6376 40.4556 40.2376 29.7056 39.6776 28.6356Z" fill="url(#paint52_linear_203_238)"/>
<defs>
<radialGradient id="paint0_radial_203_238" cx="0" cy="0" r="1" gradientUnits="userSpaceOnUse" gradientTransform="translate(94.0373 195.023) scale(40.79 8.9738)">
<stop stop-color="#BE9DEA"/>
<stop offset="0.39" stop-color="#E0BFF5"/>
<stop offset="1" stop-color="white"/>
</radialGradient>
<linearGradient id="paint1_linear_203_238" x1="70.8374" y1="180.526" x2="75.2174" y2="145.656" gradientUnits="userSpaceOnUse">
<stop stop-color="#CBC1F7"/>
<stop offset="1" stop-color="#E8DCF7"/>
</linearGradient>
<linearGradient id="paint2_linear_203_238" x1="102.188" y1="185.456" x2="107.838" y2="140.476" gradientUnits="userSpaceOnUse">
<stop stop-color="#CBC1F7"/>
<stop offset="1" stop-color="#E8DCF7"/>
</linearGradient>
<linearGradient id="paint3_linear_203_238" x1="74.4276" y1="157.906" x2="74.4276" y2="144.156" gradientUnits="userSpaceOnUse">
<stop stop-color="#BE9DEA"/>
<stop offset="1" stop-color="#9E8CEF"/>
</linearGradient>
<linearGradient id="paint4_linear_203_238" x1="106.397" y1="158.226" x2="106.397" y2="141.876" gradientUnits="userSpaceOnUse">
<stop stop-color="#BE9DEA"/>
<stop offset="1" stop-color="#9E8CEF"/>
</linearGradient>
<linearGradient id="paint5_linear_203_238" x1="74.4676" y1="180.986" x2="74.4676" y2="144.276" gradientUnits="userSpaceOnUse">
<stop stop-color="#9D68C2"/>
<stop offset="1" stop-color="#CCEDFF"/>
</linearGradient>
<linearGradient id="paint6_linear_203_238" x1="106.467" y1="184.396" x2="106.467" y2="141.746" gradientUnits="userSpaceOnUse">
<stop stop-color="#9D68C2"/>
<stop offset="1" stop-color="#CCEDFF"/>
</linearGradient>
<linearGradient id="paint7_linear_203_238" x1="50.0376" y1="148.756" x2="57.5876" y2="88.6356" gradientUnits="userSpaceOnUse">
<stop stop-color="#CBC1F7"/>
<stop offset="1" stop-color="#E8DCF7"/>
</linearGradient>
<linearGradient id="paint8_linear_203_238" x1="45.6074" y1="148.186" x2="45.6074" y2="138.626" gradientUnits="userSpaceOnUse">
<stop stop-color="#BE9DEA"/>
<stop offset="1" stop-color="#9E8CEF"/>
</linearGradient>
<linearGradient id="paint9_linear_203_238" x1="53.1174" y1="147.616" x2="53.1174" y2="97.1057" gradientUnits="userSpaceOnUse">
<stop stop-color="#9D68C2"/>
<stop offset="1" stop-color="#CCEDFF"/>
</linearGradient>
<linearGradient id="paint10_linear_203_238" x1="43.3175" y1="174.196" x2="47.4275" y2="141.446" gradientUnits="userSpaceOnUse">
<stop stop-color="#CBC1F7"/>
<stop offset="1" stop-color="#E8DCF7"/>
</linearGradient>
<linearGradient id="paint11_linear_203_238" x1="49.7675" y1="174.026" x2="49.7675" y2="144.736" gradientUnits="userSpaceOnUse">
<stop stop-color="#BE9DEA"/>
<stop offset="1" stop-color="#9E8CEF"/>
</linearGradient>
<linearGradient id="paint12_linear_203_238" x1="49.4077" y1="164.956" x2="49.4077" y2="153.636" gradientUnits="userSpaceOnUse">
<stop stop-color="#8DA4E5"/>
<stop offset="1" stop-color="#755CBB"/>
</linearGradient>
<linearGradient id="paint13_linear_203_238" x1="50.1673" y1="164.426" x2="52.5673" y2="145.296" gradientUnits="userSpaceOnUse">
<stop stop-color="#CBC1F7"/>
<stop offset="1" stop-color="#E8DCF7"/>
</linearGradient>
<linearGradient id="paint14_linear_203_238" x1="130.539" y1="148.756" x2="122.989" y2="88.6356" gradientUnits="userSpaceOnUse">
<stop stop-color="#CBC1F7"/>
<stop offset="1" stop-color="#E8DCF7"/>
</linearGradient>
<linearGradient id="paint15_linear_203_238" x1="134.969" y1="148.186" x2="134.969" y2="138.626" gradientUnits="userSpaceOnUse">
<stop stop-color="#BE9DEA"/>
<stop offset="1" stop-color="#9E8CEF"/>
</linearGradient>
<linearGradient id="paint16_linear_203_238" x1="127.459" y1="147.616" x2="127.459" y2="97.1057" gradientUnits="userSpaceOnUse">
<stop stop-color="#9D68C2"/>
<stop offset="1" stop-color="#CCEDFF"/>
</linearGradient>
<linearGradient id="paint17_linear_203_238" x1="137.259" y1="174.196" x2="133.149" y2="141.446" gradientUnits="userSpaceOnUse">
<stop stop-color="#CBC1F7"/>
<stop offset="1" stop-color="#E8DCF7"/>
</linearGradient>
<linearGradient id="paint18_linear_203_238" x1="130.809" y1="174.026" x2="130.809" y2="144.736" gradientUnits="userSpaceOnUse">
<stop stop-color="#BE9DEA"/>
<stop offset="1" stop-color="#9E8CEF"/>
</linearGradient>
<linearGradient id="paint19_linear_203_238" x1="131.169" y1="164.956" x2="131.169" y2="153.636" gradientUnits="userSpaceOnUse">
<stop stop-color="#8DA4E5"/>
<stop offset="1" stop-color="#755CBB"/>
</linearGradient>
<linearGradient id="paint20_linear_203_238" x1="130.409" y1="164.426" x2="128.009" y2="145.296" gradientUnits="userSpaceOnUse">
<stop stop-color="#CBC1F7"/>
<stop offset="1" stop-color="#E8DCF7"/>
</linearGradient>
<linearGradient id="paint21_linear_203_238" x1="54.9374" y1="39.7857" x2="54.9374" y2="5.10571" gradientUnits="userSpaceOnUse">
<stop stop-color="#B9ACF4"/>
<stop offset="1" stop-color="#E1D1F5"/>
</linearGradient>
<linearGradient id="paint22_linear_203_238" x1="52.4573" y1="26.6857" x2="52.4573" y2="5.10571" gradientUnits="userSpaceOnUse">
<stop stop-color="#BE9DEA"/>
<stop offset="1" stop-color="#9E8CEF"/>
</linearGradient>
<linearGradient id="paint23_linear_203_238" x1="126.458" y1="39.7857" x2="126.458" y2="5.10571" gradientUnits="userSpaceOnUse">
<stop stop-color="#B9ACF4"/>
<stop offset="1" stop-color="#E1D1F5"/>
</linearGradient>
<linearGradient id="paint24_linear_203_238" x1="128.978" y1="23.9556" x2="128.978" y2="5.10564" gradientUnits="userSpaceOnUse">
<stop stop-color="#BE9DEA"/>
<stop offset="1" stop-color="#9E8CEF"/>
</linearGradient>
<linearGradient id="paint25_linear_203_238" x1="133.667" y1="41.4456" x2="133.667" y2="7.37561" gradientUnits="userSpaceOnUse">
<stop stop-color="#45FFCD"/>
<stop offset="1" stop-color="#22E0FF"/>
</linearGradient>
<linearGradient id="paint26_linear_203_238" x1="47.7275" y1="41.4456" x2="47.7275" y2="7.37561" gradientUnits="userSpaceOnUse">
<stop stop-color="#45FFCD"/>
<stop offset="1" stop-color="#22E0FF"/>
</linearGradient>
<linearGradient id="paint27_linear_203_238" x1="86.9577" y1="88.9657" x2="97.9877" y2="1.19566" gradientUnits="userSpaceOnUse">
<stop stop-color="#CBC1F7"/>
<stop offset="1" stop-color="#E8DCF7"/>
</linearGradient>
<linearGradient id="paint28_linear_203_238" x1="90.5573" y1="64.9057" x2="90.5573" y2="3.48572" gradientUnits="userSpaceOnUse">
<stop stop-color="#0665BD"/>
<stop offset="1" stop-color="#1A1F77"/>
</linearGradient>
<linearGradient id="paint29_linear_203_238" x1="90.8577" y1="88.1557" x2="90.8577" y2="35.8357" gradientUnits="userSpaceOnUse">
<stop stop-color="#9D68C2"/>
<stop offset="1" stop-color="#CCEDFF"/>
</linearGradient>
<linearGradient id="paint30_linear_203_238" x1="55.5975" y1="81.3557" x2="123.777" y2="81.3557" gradientUnits="userSpaceOnUse">
<stop stop-color="#8879EA"/>
<stop offset="1" stop-color="#9E8CEF"/>
</linearGradient>
<linearGradient id="paint31_linear_203_238" x1="89.5875" y1="84.3856" x2="89.5875" y2="74.5656" gradientUnits="userSpaceOnUse">
<stop stop-color="#8DA4E5"/>
<stop offset="1" stop-color="#755CBB"/>
</linearGradient>
<linearGradient id="paint32_linear_203_238" x1="89.4175" y1="82.9957" x2="90.6875" y2="72.8157" gradientUnits="userSpaceOnUse">
<stop stop-color="#5E36CC"/>
<stop offset="1" stop-color="#6C4A96"/>
</linearGradient>
<linearGradient id="paint33_linear_203_238" x1="86.3776" y1="156.796" x2="95.9576" y2="80.5456" gradientUnits="userSpaceOnUse">
<stop stop-color="#CBC1F7"/>
<stop offset="1" stop-color="#E8DCF7"/>
</linearGradient>
<linearGradient id="paint34_linear_203_238" x1="54.7875" y1="76.0256" x2="54.7875" y2="62.2356" gradientUnits="userSpaceOnUse">
<stop stop-color="#8DA4E5"/>
<stop offset="1" stop-color="#755CBB"/>
</linearGradient>
<linearGradient id="paint35_linear_203_238" x1="109.377" y1="34.0457" x2="109.377" y2="19.3157" gradientUnits="userSpaceOnUse">
<stop stop-color="#45FFCD"/>
<stop offset="1" stop-color="#22E0FF"/>
</linearGradient>
<linearGradient id="paint36_linear_203_238" x1="71.4077" y1="34.0457" x2="71.4077" y2="19.3157" gradientUnits="userSpaceOnUse">
<stop stop-color="#45FFCD"/>
<stop offset="1" stop-color="#22E0FF"/>
</linearGradient>
<linearGradient id="paint37_linear_203_238" x1="36.0675" y1="67.0157" x2="41.1175" y2="26.7857" gradientUnits="userSpaceOnUse">
<stop stop-color="#BE9DEA"/>
<stop offset="1" stop-color="#9E8CEF"/>
</linearGradient>
<linearGradient id="paint38_linear_203_238" x1="55.2489" y1="66.8608" x2="57.8571" y2="55.861" gradientUnits="userSpaceOnUse">
<stop stop-color="#DD1A8F"/>
<stop offset="1" stop-color="#FE117E"/>
</linearGradient>
<linearGradient id="paint39_linear_203_238" x1="60.7377" y1="17.9357" x2="123.568" y2="17.9357" gradientUnits="userSpaceOnUse">
<stop/>
<stop offset="1" stop-color="#6A9BFF"/>
</linearGradient>
<linearGradient id="paint40_linear_203_238" x1="69.6173" y1="59.2857" x2="114.267" y2="59.2857" gradientUnits="userSpaceOnUse">
<stop/>
<stop offset="1" stop-color="#6A9BFF"/>
</linearGradient>
<linearGradient id="paint41_linear_203_238" x1="134.437" y1="38.2257" x2="134.437" y2="36.8057" gradientUnits="userSpaceOnUse">
<stop stop-color="#9D68C2"/>
<stop offset="1" stop-color="#CCEDFF"/>
</linearGradient>
<linearGradient id="paint42_linear_203_238" x1="90.2776" y1="156.926" x2="90.2776" y2="95.5757" gradientUnits="userSpaceOnUse">
<stop stop-color="#9D68C2"/>
<stop offset="1" stop-color="#CCEDFF"/>
</linearGradient>
<linearGradient id="paint43_linear_203_238" x1="89.6875" y1="155.676" x2="89.6875" y2="107.356" gradientUnits="userSpaceOnUse">
<stop stop-color="#BE9DEA"/>
<stop offset="1" stop-color="#9E8CEF"/>
</linearGradient>
<radialGradient id="paint44_radial_203_238" cx="0" cy="0" r="1" gradientUnits="userSpaceOnUse" gradientTransform="translate(90.6573 149.426) scale(36.87 36.87)">
<stop stop-color="#45FFCD"/>
<stop offset="1" stop-color="#22E0FF"/>
</radialGradient>
<linearGradient id="paint45_linear_203_238" x1="89.2174" y1="94.9257" x2="89.2174" y2="79.9757" gradientUnits="userSpaceOnUse">
<stop stop-color="#8DA4E5"/>
<stop offset="1" stop-color="#755CBB"/>
</linearGradient>
<linearGradient id="paint46_linear_203_238" x1="90.8576" y1="154.236" x2="90.8576" y2="145.866" gradientUnits="userSpaceOnUse">
<stop stop-color="#D4E2FF"/>
<stop offset="1"/>
</linearGradient>
<linearGradient id="paint47_linear_203_238" x1="56.3877" y1="61.7557" x2="56.3877" y2="56.9457" gradientUnits="userSpaceOnUse">
<stop stop-color="#D93DE3"/>
<stop offset="1" stop-color="#FF6DBA"/>
</linearGradient>
<linearGradient id="paint48_linear_203_238" x1="54.6712" y1="52.1903" x2="56.2285" y2="29.4636" gradientUnits="userSpaceOnUse">
<stop/>
<stop offset="1" stop-color="#00E3FF"/>
</linearGradient>
<linearGradient id="paint49_linear_203_238" x1="70.1274" y1="120.576" x2="112.147" y2="120.576" gradientUnits="userSpaceOnUse">
<stop/>
<stop offset="1" stop-color="#D4E2FF"/>
</linearGradient>
<linearGradient id="paint50_linear_203_238" x1="128.248" y1="15.8956" x2="137.118" y2="15.8956" gradientUnits="userSpaceOnUse">
<stop/>
<stop offset="1" stop-color="#D4E2FF"/>
</linearGradient>
<linearGradient id="paint51_linear_203_238" x1="43.2173" y1="14.5256" x2="52.9873" y2="14.5256" gradientUnits="userSpaceOnUse">
<stop stop-color="#D4E2FF"/>
<stop offset="1"/>
</linearGradient>
<linearGradient id="paint52_linear_203_238" x1="34.928" y1="40.121" x2="35.1532" y2="28.861" gradientUnits="userSpaceOnUse">
<stop stop-color="#CBC1F7"/>
<stop offset="1" stop-color="#E8DCF7"/>
</linearGradient>
</defs>
</svg>
