<svg width="177" height="52" viewBox="0 0 177 52" fill="none" xmlns="http://www.w3.org/2000/svg">
<path d="M29.5774 41.0973L33.2133 20.8028L24.124 20.8519L20.7461 41.0504L11.4148 41.1029L15.0508 20.8039C12.5179 20.8037 10.0632 21.7795 8.10428 23.5653C6.14541 25.3511 4.80341 27.8366 4.30663 30.5989C2.49921 40.6551 0.5 51.3457 0.5 51.3457L32.2815 51.1916C34.6934 51.1801 37.0029 50.1064 38.7046 48.2056C40.4064 46.3048 41.3618 43.7317 41.3618 41.0493L29.5774 41.0973Z" fill="white"/>
<path d="M50.4431 0.654297H14.1209C10.5084 0.654297 7.0439 2.25031 4.48948 5.09122C1.93506 7.93213 0.5 11.7852 0.5 15.8029L0.5 25.9016C0.5 21.8839 1.93506 18.0308 4.48948 15.1899C7.0439 12.349 10.5084 10.753 14.1209 10.753H48.6347C49.2001 10.7282 49.7629 10.8514 50.2777 11.1127C50.7926 11.3739 51.2451 11.766 51.5988 12.2573C51.9525 12.7485 52.1975 13.3253 52.3142 13.9411C52.4309 14.557 52.416 15.1947 52.2706 15.8029C51.99 17.1941 51.304 18.4433 50.3193 19.3563C49.3346 20.2693 48.1063 20.795 46.8252 20.8517H42.2846L40.4772 30.9515H45.0178C52.5397 30.9515 59.8538 24.1684 61.3519 15.8029C62.8501 7.43739 57.965 0.654297 50.4431 0.654297Z" fill="white"/>
<path d="M84.1072 17.6871C84.1503 18.5174 84.0011 19.3462 83.674 20.094C83.3468 20.8419 82.8526 21.4839 82.2385 21.9587C80.6036 23.0194 78.7308 23.54 76.8394 23.4596H75.1755V29.5894H71.2303V12.3725H77.1476C78.963 12.2523 80.7696 12.7347 82.338 13.7584C82.9144 14.1858 83.3807 14.7729 83.691 15.4619C84.0013 16.1508 84.1447 16.9177 84.1072 17.6871ZM75.1705 20.4578H76.5291C77.4734 20.5754 78.4256 20.3311 79.2282 19.7654C79.5218 19.5543 79.7617 19.2629 79.925 18.9192C80.0883 18.5754 80.1696 18.1908 80.161 17.8021C80.1744 17.453 80.1159 17.1051 79.9899 16.7849C79.8639 16.4648 79.6738 16.181 79.434 15.955C78.7154 15.4799 77.8774 15.2773 77.0462 15.3777H75.284V20.4578H75.1705Z" fill="white"/>
<path d="M93.7836 12.3752H89.8384V29.4636H93.7836V12.3752Z" fill="white"/>
<path d="M111.93 29.4644H98.1199V27.155L107.049 15.3767H98.3277V12.3782H111.721V14.6854L102.792 26.4626H111.93V29.4644Z" fill="white"/>
<path d="M134.593 20.9188C134.642 22.1321 134.464 23.3434 134.07 24.4762C133.676 25.6089 133.076 26.6385 132.306 27.4998C130.36 28.967 128.063 29.7513 125.713 29.7513C123.362 29.7513 121.065 28.967 119.12 27.4998C118.35 26.6385 117.749 25.6089 117.355 24.4762C116.961 23.3434 116.783 22.1321 116.832 20.9188C116.783 19.7056 116.961 18.4943 117.355 17.3615C117.749 16.2287 118.35 15.1991 119.12 14.3379C121.021 12.7193 123.376 11.9005 125.768 12.0262C128.674 12.0262 130.851 12.8347 132.309 14.3356C133.117 15.1652 133.744 16.1902 134.14 17.3316C134.536 18.4729 134.691 19.7002 134.593 20.9188ZM120.992 20.9188C120.888 22.4503 121.295 23.9707 122.134 25.1904C122.593 25.704 123.146 26.1034 123.754 26.3621C124.363 26.6208 125.014 26.733 125.664 26.6913C128.777 26.6913 130.44 24.7291 130.44 20.9188C130.44 17.1085 128.883 15.1464 125.768 15.1464C125.116 15.0944 124.463 15.2018 123.853 15.4611C123.243 15.7204 122.691 16.1253 122.237 16.6473C121.778 17.2268 121.431 17.9049 121.217 18.6396C121.003 19.3743 120.926 20.15 120.992 20.9188Z" fill="white"/>
<path d="M158.331 29.4644H153.248L145.15 16.5325H145.05C145.197 18.1439 145.266 19.7629 145.258 21.3825V29.4644H141.724V12.3782H146.708L154.806 25.1928H154.906C154.806 22.9996 154.698 21.3825 154.698 20.4579V12.3782H158.229L158.331 29.4644Z" fill="white"/>
<path d="M176.229 29.4644H165.428V12.3782H176.229V15.3767H169.481V19.1904H175.813V22.1888H169.481V26.5765H176.229V29.4644Z" fill="white"/>
<path d="M73.6182 37.2737H71.2303V49.7432H73.6182V37.2737Z" fill="white"/>
<path d="M88.8808 49.7432H85.8684L80.9884 40.2744H80.888C80.9884 41.8914 80.9884 43.1623 80.9884 43.8546V49.7443H78.9119V37.2737H81.9242L86.8043 46.6253C86.7039 45.0082 86.7039 43.8546 86.7039 43.1634V37.2737H88.8848L88.8808 49.7432Z" fill="white"/>
<path d="M99.2976 49.7432H96.9098V37.2737H103.348V39.467H99.2996V42.7055H103.14V44.8977H99.2996V49.7477L99.2976 49.7432Z" fill="white"/>
<path d="M119.844 43.5085C119.942 45.2189 119.46 46.908 118.494 48.2435C117.402 49.3044 116 49.889 114.549 49.889C113.099 49.889 111.697 49.3044 110.604 48.2435C109.61 46.9254 109.126 45.2227 109.259 43.5085C109.161 41.7981 109.642 40.109 110.608 38.7735C111.709 37.7302 113.107 37.157 114.553 37.157C115.999 37.157 117.398 37.7302 118.498 38.7735C119.464 40.109 119.946 41.7981 119.848 43.5085H119.844ZM111.646 43.5085C111.565 44.6094 111.821 45.7085 112.373 46.6265C112.633 46.9847 112.967 47.2665 113.348 47.4472C113.728 47.6279 114.142 47.702 114.554 47.6628C116.423 47.6628 117.358 46.2773 117.358 43.5063C117.358 40.7353 116.422 39.3494 114.55 39.3487C114.138 39.3091 113.724 39.383 113.343 39.5637C112.963 39.7444 112.628 40.0265 112.369 40.385C111.863 41.3284 111.612 42.4139 111.645 43.5119L111.646 43.5085Z" fill="white"/>
<path d="M130.692 49.7432H128.302V39.4692H125.29V37.2737H133.699V39.467H130.686L130.692 49.7432Z" fill="white"/>
<path d="M145.834 49.7432H139.395V37.2737H145.834V39.467H141.785V42.2387H145.522V44.4342H141.785V47.6728H145.834V49.7432Z" fill="white"/>
<path d="M158.791 39.2364C158.39 39.2457 157.995 39.3541 157.636 39.5536C157.277 39.7531 156.962 40.0387 156.714 40.39C156.173 41.3139 155.917 42.4089 155.985 43.5091C155.985 46.2808 156.92 47.6663 158.789 47.6656C159.79 47.6583 160.78 47.4226 161.696 46.9732V49.1665C160.716 49.6367 159.647 49.8348 158.583 49.7438C157.89 49.8129 157.192 49.7029 156.544 49.4224C155.896 49.1419 155.314 48.6985 154.846 48.1268C153.923 46.7716 153.479 45.0876 153.597 43.3929C153.592 42.2401 153.804 41.099 154.219 40.0427C154.613 39.1065 155.268 38.3371 156.088 37.8494C156.933 37.2868 157.907 37.0062 158.891 37.0409C160.017 37.0451 161.124 37.3626 162.111 37.9644L161.384 40.1577C160.988 39.9166 160.57 39.7231 160.137 39.5804C159.62 39.4687 159.206 39.3503 158.79 39.2342" fill="white"/>
<path d="M175.712 49.7432H173.324V44.4342H168.86V49.8616H166.469V37.2737H168.857V42.1237H173.321V37.2737H175.709L175.712 49.7432Z" fill="white"/>
</svg>
