<svg width="1921" height="325" viewBox="0 0 1921 325" fill="none" xmlns="http://www.w3.org/2000/svg">
<path fill-rule="evenodd" clip-rule="evenodd" d="M0.0712891 324.34L46.4713 270.34C91.2713 216.34 182.471 108.34 273.671 72.3403C366.471 36.3403 457.671 72.3403 548.871 108.34C640.071 144.34 731.271 180.34 822.471 180.34C913.671 180.34 1006.47 144.34 1097.67 108.34C1188.87 72.3403 1280.07 36.3403 1371.27 72.3403C1462.47 108.34 1553.67 216.34 1646.47 252.34C1737.67 288.34 1828.87 252.34 1873.67 234.34L1920.07 216.34V0.340332H1873.67C1828.87 0.340332 1737.67 0.340332 1646.47 0.340332C1553.67 0.340332 1462.47 0.340332 1371.27 0.340332C1280.07 0.340332 1188.87 0.340332 1097.67 0.340332C1006.47 0.340332 913.671 0.340332 822.471 0.340332C731.271 0.340332 640.071 0.340332 548.871 0.340332C457.671 0.340332 366.471 0.340332 273.671 0.340332C182.471 0.340332 91.2713 0.340332 46.4713 0.340332H0.0712891V324.34Z" fill="white"/>
</svg>
