<svg width="1920" height="1166" viewBox="0 0 1920 1166" fill="none" xmlns="http://www.w3.org/2000/svg">
<g clip-path="url(#clip0_34_46969)">
<rect width="1920" height="1166" fill="#F2F7F9"/>
<path d="M42.686 19.3403V1166" stroke="black" stroke-opacity="0.08"/>
<path d="M140.877 19.3403V1166" stroke="black" stroke-opacity="0.08"/>
<path d="M0 152.091L1920 152.091" stroke="black" stroke-opacity="0.08"/>
<path d="M0 64.5308L1920 64.5306" stroke="black" stroke-opacity="0.08"/>
<path d="M0 239.651L1920 239.651" stroke="black" stroke-opacity="0.08"/>
<path d="M0 327.211L1920 327.211" stroke="black" stroke-opacity="0.08"/>
<path d="M0 414.771L1920 414.771" stroke="black" stroke-opacity="0.08"/>
<path d="M0 502.331L1920 502.331" stroke="black" stroke-opacity="0.08"/>
<path d="M0 589.891L1920 589.891" stroke="black" stroke-opacity="0.08"/>
<path d="M0 677.451L1920 677.451" stroke="black" stroke-opacity="0.08"/>
<path d="M0 765.011L1920 765.011" stroke="black" stroke-opacity="0.08"/>
<path d="M0 852.571L1920 852.571" stroke="black" stroke-opacity="0.08"/>
<path d="M0 940.131L1920 940.131" stroke="black" stroke-opacity="0.08"/>
<path d="M0 1027.69L1920 1027.69" stroke="black" stroke-opacity="0.08"/>
<path d="M0 1115.25L1920 1115.25" stroke="black" stroke-opacity="0.08"/>
<path d="M239.068 19.3403V1166" stroke="black" stroke-opacity="0.08"/>
<path d="M337.259 19.3403V1166" stroke="black" stroke-opacity="0.08"/>
<path d="M435.45 19.3403V1166" stroke="black" stroke-opacity="0.08"/>
<path d="M533.642 19.3403V1166" stroke="black" stroke-opacity="0.08"/>
<path d="M631.833 19.3403V1166" stroke="black" stroke-opacity="0.08"/>
<path d="M730.024 19.3403V1166" stroke="black" stroke-opacity="0.08"/>
<path d="M828.215 19.3403V1166" stroke="black" stroke-opacity="0.08"/>
<path d="M926.406 19.3403V1166" stroke="black" stroke-opacity="0.08"/>
<path d="M1024.6 19.3403V1166" stroke="black" stroke-opacity="0.08"/>
<path d="M1122.79 19.3403V1166" stroke="black" stroke-opacity="0.08"/>
<path d="M1220.98 19.3403V1166" stroke="black" stroke-opacity="0.08"/>
<path d="M1319.17 19.3403V1166" stroke="black" stroke-opacity="0.08"/>
<path d="M1417.36 19.3403V1166" stroke="black" stroke-opacity="0.08"/>
<path d="M1515.55 19.3403V1166" stroke="black" stroke-opacity="0.08"/>
<path d="M1613.74 19.3403V1166" stroke="black" stroke-opacity="0.08"/>
<path d="M1711.93 19.3403V1166" stroke="black" stroke-opacity="0.08"/>
<path d="M1810.13 19.3403V1166" stroke="black" stroke-opacity="0.08"/>
<path d="M1908.32 19.3403V1166" stroke="black" stroke-opacity="0.08"/>
</g>
<defs>
<clipPath id="clip0_34_46969">
<rect width="1920" height="1166" fill="white"/>
</clipPath>
</defs>
</svg>
