<svg width="224" height="89" viewBox="0 0 224 89" fill="none" xmlns="http://www.w3.org/2000/svg">
<path d="M38.6105 52.0918L43.2069 26.4365L31.7166 26.4986L27.4465 52.0325L15.6504 52.0989L20.2467 26.4379C17.0448 26.4376 13.9416 27.6712 11.4653 29.9287C8.98904 32.1863 7.29256 35.3283 6.66456 38.8202C4.37971 51.5328 1.85242 65.0472 1.85242 65.0472L42.0289 64.8524C45.0778 64.8378 47.9974 63.4806 50.1487 61.0777C52.3 58.6748 53.5077 55.422 53.5077 52.0311L38.6105 52.0918Z" fill="white"/>
<path d="M64.9878 0.96582H19.0713C14.5046 0.96582 10.1249 2.98341 6.8957 6.57474C3.66654 10.1661 1.85242 15.037 1.85242 20.1159L1.85242 32.8821C1.85242 27.8032 3.66654 22.9323 6.8957 19.341C10.1249 15.7496 14.5046 13.7321 19.0713 13.7321H62.7017C63.4165 13.7007 64.128 13.8565 64.7788 14.1867C65.4296 14.517 66.0016 15.0126 66.4487 15.6337C66.8959 16.2547 67.2057 16.9838 67.3532 17.7623C67.5007 18.5408 67.4818 19.347 67.298 20.1159C66.9433 21.8746 66.0761 23.4537 64.8313 24.6079C63.5864 25.762 62.0337 26.4266 60.4143 26.4983H54.6743L52.3894 39.2659H58.1295C67.6382 39.2659 76.8842 30.6911 78.7781 20.1159C80.672 9.54064 74.4966 0.96582 64.9878 0.96582Z" fill="white"/>
<path d="M107.544 22.4981C107.599 23.5477 107.41 24.5953 106.996 25.5407C106.583 26.4862 105.958 27.2978 105.182 27.8979C103.115 29.2389 100.748 29.897 98.3565 29.7953H96.2532V37.5442H91.2659V15.7797H98.7462C101.041 15.6277 103.325 16.2375 105.308 17.5316C106.036 18.0719 106.626 18.8141 107.018 19.685C107.41 20.5559 107.592 21.5254 107.544 22.4981V22.4981ZM96.2468 26.0005H97.9643C99.1581 26.1492 100.362 25.8405 101.376 25.1253C101.747 24.8584 102.051 24.4901 102.257 24.0555C102.464 23.621 102.566 23.1348 102.556 22.6435C102.573 22.2021 102.499 21.7623 102.339 21.3576C102.18 20.9529 101.94 20.594 101.637 20.3085C100.728 19.7078 99.6687 19.4517 98.618 19.5786H96.3903V26.0005H96.2468Z" fill="white"/>
<path d="M119.777 15.7827H114.789V37.3849H119.777V15.7827Z" fill="white"/>
<path d="M142.716 37.386H125.258V34.4666L136.545 19.5771H125.521V15.7866H142.452V18.7032L131.165 33.5913H142.716V37.386Z" fill="white"/>
<g clip-path="url(#clip0_11_46105)">
<path d="M0.939957 86.5337V78.629H4.53095C7.11692 78.629 8.88983 80.1873 8.88983 82.5813C8.88983 84.9753 7.11692 86.5337 4.53095 86.5337H0.939957ZM2.76933 85.0318H4.44061C6.01026 85.0318 7.03787 84.0945 7.03787 82.5813C7.03787 81.0682 6.01026 80.1309 4.44061 80.1309H2.76933V85.0318ZM27.8657 86.5337L27.1656 84.8398H23.4955L22.7954 86.5337H20.9209L24.4441 78.629H26.2509L29.7854 86.5337H27.8657ZM24.0827 83.4509H26.5897L25.3362 80.4245L24.0827 83.4509ZM43.6465 86.5337V80.1196H41.117V78.629H48.0054V80.1196H45.4759V86.5337H43.6465ZM66.2992 86.5337L65.5991 84.8398H61.929L61.2289 86.5337H59.3544L62.8776 78.629H64.6844L68.2189 86.5337H66.2992ZM62.5162 83.4509H65.0232L63.7697 80.4245L62.5162 83.4509ZM98.4355 86.6692C97.1821 86.6692 95.9173 86.2966 95.2172 85.7545L95.8383 84.3768C96.5045 84.8624 97.4983 85.2012 98.4468 85.2012C99.5309 85.2012 99.9713 84.8398 99.9713 84.3543C99.9713 82.8749 95.3753 83.8913 95.3753 80.9552C95.3753 79.6114 96.4593 78.4935 98.7065 78.4935C99.7003 78.4935 100.717 78.7306 101.451 79.1936L100.886 80.5826C100.152 80.1648 99.3954 79.9615 98.6952 79.9615C97.6112 79.9615 97.1934 80.368 97.1934 80.8649C97.1934 82.3216 101.789 81.3166 101.789 84.2187C101.789 85.54 100.694 86.6692 98.4355 86.6692ZM118.352 86.6692C116.105 86.6692 114.772 85.3819 114.772 83.0556V78.629H116.602V82.9879C116.602 84.4898 117.257 85.1108 118.363 85.1108C119.481 85.1108 120.125 84.4898 120.125 82.9879V78.629H121.932V83.0556C121.932 85.3819 120.599 86.6692 118.352 86.6692ZM142.541 86.5337H140.576L139.052 84.3317H138.962H137.369V86.5337H135.54V78.629H138.962C141.073 78.629 142.394 79.7244 142.394 81.4973C142.394 82.683 141.796 83.5525 140.768 83.9929L142.541 86.5337ZM140.543 81.4973C140.543 80.6278 139.978 80.1196 138.86 80.1196H137.369V82.8749H138.86C139.978 82.8749 140.543 82.3555 140.543 81.4973ZM160.986 84.7721V82.4571H162.657V85.6642C161.788 86.3191 160.591 86.6692 159.461 86.6692C156.977 86.6692 155.148 84.964 155.148 82.5813C155.148 80.1986 156.977 78.4935 159.495 78.4935C160.884 78.4935 162.036 78.9678 162.804 79.8599L161.629 80.9439C161.054 80.3341 160.387 80.0518 159.586 80.0518C158.05 80.0518 157 81.0794 157 82.5813C157 84.0606 158.05 85.1108 159.563 85.1108C160.06 85.1108 160.523 85.0205 160.986 84.7721ZM177.975 85.0657H182.277V86.5337H176.157V78.629H182.131V80.097H177.975V81.8135H181.645V83.2363H177.975V85.0657ZM199.34 86.6692C196.844 86.6692 195.015 84.9302 195.015 82.5813C195.015 80.2325 196.844 78.4935 199.34 78.4935C201.824 78.4935 203.665 80.2212 203.665 82.5813C203.665 84.9415 201.824 86.6692 199.34 86.6692ZM199.34 85.1108C200.751 85.1108 201.813 84.0832 201.813 82.5813C201.813 81.0794 200.751 80.0518 199.34 80.0518C197.928 80.0518 196.867 81.0794 196.867 82.5813C196.867 84.0832 197.928 85.1108 199.34 85.1108ZM222.283 78.629H224.09V86.5337H222.588L218.647 81.7344V86.5337H216.84V78.629H218.353L222.283 83.4283V78.629Z" fill="white"/>
</g>
<path d="M171.365 26.5832C171.427 28.1169 171.202 29.6482 170.704 31.0802C170.207 32.5122 169.447 33.8137 168.474 34.9025C166.014 36.7572 163.111 37.7487 160.139 37.7487C157.168 37.7487 154.264 36.7572 151.805 34.9025C150.831 33.8137 150.072 32.5122 149.574 31.0802C149.076 29.6482 148.851 28.1169 148.913 26.5832C148.851 25.0494 149.076 23.5182 149.574 22.0862C150.072 20.6542 150.831 19.3526 151.805 18.2639C154.209 16.2178 157.185 15.1827 160.209 15.3416C163.883 15.3416 166.635 16.3637 168.478 18.261C169.5 19.3098 170.292 20.6055 170.792 22.0484C171.293 23.4912 171.489 25.0427 171.365 26.5832V26.5832ZM154.172 26.5832C154.041 28.5191 154.554 30.4412 155.615 31.983C156.196 32.6324 156.894 33.1372 157.664 33.4643C158.433 33.7914 159.256 33.9332 160.078 33.8804C164.013 33.8804 166.115 31.4 166.115 26.5832C166.115 21.7664 164.147 19.286 160.209 19.286C159.386 19.2202 158.559 19.356 157.788 19.6838C157.017 20.0117 156.32 20.5235 155.746 21.1833C155.166 21.9159 154.727 22.7731 154.456 23.7019C154.185 24.6306 154.089 25.6112 154.172 26.5832V26.5832Z" fill="white"/>
<path d="M201.374 37.386H194.949L184.711 21.0382H184.584C184.77 23.0753 184.858 25.1219 184.847 27.1694V37.386H180.38V15.7866H186.68L196.918 31.9862H197.045C196.918 29.2135 196.782 27.1694 196.782 26.0005V15.7866H201.245L201.374 37.386Z" fill="white"/>
<path d="M224 37.386H210.345V15.7866H224V19.5771H215.469V24.3981H223.474V28.1886H215.469V33.7353H224V37.386Z" fill="white"/>
<path d="M94.2844 47.2578H91.2659V63.0211H94.2844V47.2578Z" fill="white"/>
<path d="M113.579 63.0211H109.77L103.601 51.0511H103.474C103.601 53.0953 103.601 54.7018 103.601 55.5771V63.0225H100.976V47.2578H104.784L110.953 59.0796C110.827 57.0354 110.827 55.5771 110.827 54.7033V47.2578H113.584L113.579 63.0211Z" fill="white"/>
<path d="M126.747 63.0211H123.729V47.2578H131.868V50.0304H126.75V54.1244H131.605V56.8957H126.75V63.0268L126.747 63.0211Z" fill="white"/>
<path d="M152.721 55.1401C152.844 57.3022 152.236 59.4375 151.015 61.1258C149.633 62.4669 147.861 63.2059 146.027 63.2059C144.194 63.2059 142.422 62.4669 141.04 61.1258C139.783 59.4594 139.172 57.307 139.339 55.1401C139.216 52.9779 139.824 50.8426 141.045 49.1543C142.436 47.8353 144.204 47.1108 146.033 47.1108C147.861 47.1108 149.629 47.8353 151.02 49.1543C152.241 50.8426 152.849 52.9779 152.726 55.1401H152.721ZM142.358 55.1401C142.254 56.5317 142.578 57.9211 143.277 59.0816C143.605 59.5344 144.028 59.8907 144.508 60.1191C144.989 60.3476 145.513 60.4412 146.034 60.3917C148.396 60.3917 149.578 58.6402 149.578 55.1372C149.578 51.6343 148.395 49.8823 146.029 49.8814C145.508 49.8314 144.984 49.9247 144.503 50.1532C144.022 50.3817 143.599 50.7383 143.272 51.1915C142.632 52.3841 142.314 53.7563 142.356 55.1443L142.358 55.1401Z" fill="white"/>
<path d="M166.434 63.0211H163.413V50.0333H159.605V47.2578H170.235V50.0304H166.427L166.434 63.0211Z" fill="white"/>
<path d="M185.575 63.0211H177.436V47.2578H185.575V50.0304H180.457V53.5343H185.182V56.3098H180.457V60.4038H185.575V63.0211Z" fill="white"/>
<path d="M201.955 49.739C201.448 49.7508 200.949 49.8878 200.495 50.14C200.041 50.3922 199.643 50.7533 199.33 51.1974C198.646 52.3654 198.322 53.7495 198.409 55.1403C198.409 58.6442 199.59 60.3957 201.953 60.3948C203.218 60.3855 204.469 60.0876 205.627 59.5195V62.2921C204.388 62.8865 203.038 63.137 201.692 63.022C200.816 63.1093 199.934 62.9703 199.115 62.6156C198.295 62.261 197.56 61.7005 196.968 60.9778C195.802 59.2646 195.24 57.1358 195.389 54.9935C195.383 53.5362 195.651 52.0936 196.176 50.7583C196.674 49.5749 197.502 48.6022 198.538 47.9857C199.607 47.2745 200.837 46.9197 202.082 46.9636C203.505 46.969 204.904 47.3703 206.152 48.1311L205.233 50.9037C204.732 50.5989 204.204 50.3542 203.657 50.1739C203.004 50.0327 202.479 49.883 201.954 49.7362" fill="white"/>
<path d="M223.346 63.0211H220.328V56.3098H214.684V63.1708H211.662V47.2578H214.68V53.3889H220.324V47.2578H223.343L223.346 63.0211Z" fill="white"/>
<defs>
<clipPath id="clip0_11_46105">
<rect width="223.992" height="13.1606" fill="white" transform="translate(0.00268555 75.374)"/>
</clipPath>
</defs>
</svg>
